<svg xmlns="http://www.w3.org/2000/svg" xmlns:xlink="http://www.w3.org/1999/xlink">
	<symbol id="fbIco" viewBox="0 0 10 17">
		<path d="M 10 0 L 7.8888 0 C 7.8888 0 2.9974 -0.834 2.9974 3.8091 C 2.9974 4.8019 3.0781 6 3.0781 6 L 0 6 L 0 9 L 3 9 L 3 17 L 6 17 L 6 9 L 10 9 L 10 6 L 6 6 L 6 3.7122 C 6 3.7122 5.9673 3 7.3946 3 L 10 3 L 10 0 Z"/>
	</symbol>
	<symbol id="twIco" viewBox="0 0 18 14">
		<path d="M 18 1.6572 C 17.3376 1.9391 16.6257 2.1282 15.8786 2.2145 C 16.6411 1.777 17.2267 1.0831 17.5024 0.2588 C 16.7894 0.6636 15.9984 0.957 15.1578 1.1167 C 14.4838 0.429 13.5242 0 12.4625 0 C 10.4227 0 8.7692 1.5824 8.7692 3.535 C 8.7692 3.8105 8.8017 4.0819 8.8649 4.3406 C 5.7958 4.1921 3.0745 2.7854 1.253 0.6479 C 0.9354 1.1693 0.7531 1.776 0.7531 2.4236 C 0.7531 3.6509 1.4051 4.7316 2.3961 5.3657 C 1.7908 5.3477 1.2211 5.188 0.7234 4.923 C 0.7229 4.9377 0.7229 4.9524 0.7229 4.968 C 0.7229 6.681 1.9962 8.109 3.6853 8.4336 C 3.3756 8.5146 3.0493 8.5568 2.7125 8.5568 C 2.4747 8.5568 2.2429 8.5358 2.0176 8.4939 C 2.4874 9.8983 3.8513 10.9205 5.4673 10.9478 C 4.2033 11.8962 2.6109 12.4618 0.881 12.4618 C 0.5828 12.4618 0.2889 12.4451 0 12.4114 C 1.6342 13.4144 3.5755 14 5.6608 14 C 12.4536 14 16.1676 8.6145 16.1676 3.9442 C 16.1676 3.7915 16.1642 3.6382 16.1577 3.4868 C 16.8795 2.9883 17.5046 2.3657 18 1.6572 Z"/>
	</symbol>
	<symbol id="inIco" viewBox="0 0 15 15">
		<path d="M 0 1.5 C 0 2.3284 0.6716 3 1.5 3 C 2.3284 3 3 2.3284 3 1.5 C 3 0.6716 2.3284 0 1.5 0 C 0.6716 0 0 0.6716 0 1.5 ZM 15 9.4607 L 15 9.1975 C 15 6.231 12.9762 4.8506 10.838 4.8506 C 9.116 4.8506 7.9988 7.2102 8 7.2107 L 8 5 L 5 5 L 5 15 L 8 15 L 8 9.3423 C 8 9.0527 8.0222 8.7659 8.1077 8.5593 C 8.3429 7.9817 9.1151 7.3158 10.0132 7.3158 C 11.1891 7.3158 12 8.5342 12 9.8323 L 12 15 L 15 15 L 15 9.4607 ZM 0 15 L 3 15 L 3 5 L 0 5 L 0 15 Z"/>
	</symbol>
	<symbol id="gpIco" viewBox="0 0 22 14">
		<path d="M 16 5 L 16 7 L 18 7 L 18 9 L 20 9 L 20 7 L 22 7 L 22 5 L 20 5 L 20 3 L 18 3 L 18 5 L 16 5 ZM 0 7 C 0 10.866 3.134 14 7 14 C 10.5265 14 13.4448 11.3923 13.93 8 L 14 8 L 14 6 L 8 6 L 8 8 L 11.725 8 C 11.2644 10.1877 9.3839 11.5499 7.0591 11.5499 C 4.3915 11.5499 2.4263 9.8149 2.4263 7.1475 C 2.4263 4.4799 4.3271 2.5237 6.9947 2.5237 C 8.1614 2.5237 9.4874 3.4124 10.3229 4.1011 L 12.0079 2.696 C 11.4 1.2869 8.8378 0 7 0 C 3.134 0 0 3.134 0 7 Z"/>
	</symbol>
	
	<symbol id="searchIco" viewBox="0 0 14 14">
			<path opacity="0.902" d="M 1.3398 6.0065 C 1.3398 3.4335 3.4335 1.3403 6.0065 1.3403 C 8.5796 1.3403 10.6741 3.4335 10.6741 6.0065 C 10.6741 8.58 8.5796 10.6736 6.0065 10.6736 C 3.4335 10.6736 1.3398 8.58 1.3398 6.0065 ZM 14 13.218 L 10.6267 9.8442 C 11.4926 8.8029 12.0131 7.4662 12.0131 6.0065 C 12.0131 2.6893 9.3242 0 6.0065 0 C 2.6897 0 0 2.6893 0 6.0065 C 0 9.3238 2.6897 12.013 6.0065 12.013 C 7.4667 12.013 8.8029 11.4921 9.8438 10.6262 L 13.217 14 L 14 13.218 Z"/>
	</symbol>

	<symbol id="icnAccountBack" viewBox="0 0 32 32">
            <path  class="path1" d="M30 0l-5.6 5.918 5.6 5.78v-11.699zM22.149 22.96c-0.977-0.392-1.617-0.767-2.216-1.164-1.335-0.884-1.812-1.881-1.812-3.461 0-1.374 0.963-0.925 1.386-3.442 0.175-1.043 1.025-0.017 1.188-2.4 0-0.95-0.464-1.186-0.464-1.186s0.236-1.405 0.328-2.487c0.114-1.348-0.706-4.829-5.083-4.829-4.375 0-5.197 3.481-5.082 4.829 0.092 1.082 0.327 2.487 0.327 2.487s-0.464 0.236-0.464 1.186c0.163 2.383 1.013 1.357 1.189 2.4 0.423 2.516 1.386 2.067 1.386 3.442 0 1.868-2.633 3.461-2.633 3.461-0.599 0.397-1.371 0.771-2.349 1.164-3.163 1.272-5.851 2.508-5.851 3.821v5.22h26v-4.187c0-1.313-2.688-3.581-5.851-4.853z"></path>
        </symbol>
        <symbol id="icnAccountCircle" viewBox="0 0 32 32">
            <path class="path1" d="M25.056 27.051c-4.196-1.525-5.537-2.811-5.537-5.565 0-1.653 1.281-1.113 1.844-4.141 0.233-1.256 1.365-0.021 1.582-2.888 0-1.143-0.618-1.427-0.618-1.427s0.314-1.691 0.437-2.993c0.152-1.622-0.94-5.811-6.763-5.811s-6.916 4.189-6.763 5.811c0.123 1.302 0.437 2.993 0.437 2.993s-0.617 0.284-0.617 1.427c0.216 2.867 1.348 1.632 1.581 2.888 0.563 3.028 1.844 2.488 1.844 4.141 0 2.754-1.341 4.040-5.537 5.565-4.21 1.53-6.944 3.088-6.944 4.152 0 1.062 32 1.062 32 0 0-1.064-2.735-2.623-6.944-4.152z"></path>
        </symbol>
        <symbol id="icnAccountDefault" viewBox="0 0 32 32">
            <path class="path1" d="M16 0c-8.84 0-16 7.16-16 16s7.16 16 16 16c8.84 0 16-7.16 16-16s-7.16-16-16-16zM16 4.8c2.648 0 4.8 2.152 4.8 4.8 0 2.656-2.152 4.8-4.8 4.8s-4.8-2.144-4.8-4.8c0-2.648 2.152-4.8 4.8-4.8zM16 27.52c-4.008 0-7.528-2.049-9.6-5.152 0.040-3.176 6.408-4.928 9.6-4.928s9.552 1.753 9.6 4.928c-2.072 3.104-5.592 5.152-9.6 5.152z"></path>
        </symbol>
        <symbol id="icnAccountFemale" viewBox="0 0 32 32">
            <path class="path1" d="M26.051 23.364c-4.604-1.654-6.075-3.106-6.075-6.094 0-0.143 0.009-0.411 0.026-0.685h0.225c3.146 0.229 6.178 0.447 6.853-0.023 1.077-0.75-3.306 2.554-3.306-7.149 0-4.902-2.589-8.27-7.509-8.27-0.042 0-0.082 0.002-0.124 0.003-0.012-0-0.024-0-0.035-0.001v-0.001c-0.018 0-0.037-0.001-0.055-0.001-0.006 0-0.011 0-0.017 0s-0.011-0-0.017-0c-0.005 0-0.011 0-0.016 0s-0.011-0-0.016-0c-0.005 0-0.011 0-0.017 0s-0.011-0-0.017-0c-0.019 0-0.037 0.001-0.056 0.001v0.001c-0.011 0.001-0.023 0.001-0.034 0.001-0.041-0.001-0.082-0.003-0.124-0.003-4.92 0-7.537 3.548-7.537 8.451 0 9.702-4.354 6.218-3.277 6.968 0.674 0.47 3.706 0.252 6.852 0.023h0.225c0.017 0.274 0.026 0.542 0.026 0.685 0 2.988-1.471 4.44-6.075 6.094-4.618 1.66-5.949 5.637-5.949 6.791v0.702h32v-0.702c0-1.154-1.331-5.132-5.949-6.791v0zM26.051 23.364v0z"></path>
        </symbol>
        <symbol id="icnAccountGroup" viewBox="0 0 32 32">
            <path class="path1" d="M32 30c0 0-0.063-6.024-0.433-6.649-0.551-0.93-1.833-1.569-4.215-2.559-2.373-0.986-3.131-1.818-3.131-3.6 0-1.071 0.724-0.72 1.043-2.679 0.132-0.813 0.772-0.014 0.895-1.869 0-0.739-0.349-0.924-0.349-0.924s0.178-1.093 0.246-1.936c0.087-1.049-0.532-3.759-3.825-3.759s-3.912 2.71-3.826 3.759c0.070 0.842 0.247 1.936 0.247 1.936s-0.349 0.185-0.349 0.924c0.123 1.855 0.762 1.055 0.894 1.869 0.318 1.959 1.043 1.608 1.043 2.679 0 1.211-1.148 1.984-2.119 2.665 5.185 2.581 5.88 3.107 5.88 5.414v4.729h8zM16.357 21.688c-3.165-1.315-4.176-2.425-4.176-4.8 0-1.427 0.966-0.961 1.391-3.573 0.176-1.083 1.030-0.018 1.193-2.491 0-0.986-0.466-1.231-0.466-1.231s0.237-1.458 0.329-2.581c0.115-1.399-0.709-5.013-5.102-5.013-4.392 0-5.216 3.614-5.1 5.013 0.093 1.123 0.329 2.581 0.329 2.581s-0.465 0.245-0.465 1.231c0.164 2.473 1.017 1.408 1.193 2.491 0.425 2.612 1.391 2.146 1.391 3.573 0 2.375-1.012 3.485-4.176 4.8-0.965 0.401-2.697 1.022-2.697 2.516v5.796h22.23c0 0 0-3.429 0-4.346 0-1.362-2.698-2.646-5.873-3.966z"></path>
        </symbol>
        <symbol id="icnAccountMale" viewBox="0 0 32 32">
            <path class="path1" d="M24.836 22.501c-1.196-0.465-2.143-0.91-2.876-1.381-1.634-1.048-2.219-2.231-2.219-4.105 0-1.63 1.179-1.098 1.697-4.083 0.214-1.238 1.256-0.020 1.455-2.847 0-1.127-0.568-1.406-0.568-1.406s0.289-1.666 0.402-2.95c0.14-1.599-0.865-5.729-6.224-5.729-5.358 0-6.363 4.13-6.222 5.729 0.113 1.284 0.401 2.95 0.401 2.95s-0.568 0.28-0.568 1.406c0.2 2.826 1.241 1.609 1.456 2.847 0.518 2.985 1.697 2.453 1.697 4.083 0 2.216-3.225 4.105-3.225 4.105-0.734 0.471-1.679 0.915-2.876 1.381-3.873 1.509-7.164 2.976-7.164 4.532v4.967h32v-4.967c0-1.557-3.291-3.024-7.164-4.532z"></path>
        </symbol>
        <symbol id="icnAccountMove" viewBox="0 0 32 32">
            <path class="path1" d="M19.708 5.856v1.687h6.684l-0.003 3.137 5.611-4.077-5.611-4.077 0.003 3.33h-6.684zM19.035 22.057c-0.917-0.363-1.642-0.711-2.204-1.078-1.253-0.819-1.701-1.742-1.701-3.205 0-1.273 0.904-0.857 1.301-3.187 0.164-0.966 0.962-0.016 1.115-2.223 0-0.88-0.435-1.098-0.435-1.098s0.221-1.301 0.308-2.303c0.107-1.248-0.663-4.472-4.77-4.472s-4.877 3.224-4.769 4.472c0.087 1.002 0.307 2.303 0.307 2.303s-0.436 0.218-0.436 1.098c0.153 2.207 0.951 1.257 1.116 2.223 0.397 2.33 1.3 1.915 1.3 3.187 0 1.73-2.471 3.205-2.471 3.205-0.562 0.367-1.287 0.714-2.204 1.078-2.969 1.178-5.491 2.323-5.491 3.539v3.878h24.526v-3.878c0-1.215-2.523-2.361-5.491-3.539z"></path>
        </symbol>
        <symbol id="icnAccountPlus" viewBox="0 0 32 32">
            <path class="path1" d="M24.889 0.889v3.556h-3.556v3.556h3.556v3.556h3.556v-3.556h3.556v-3.556h-3.556v-3.556h-3.556zM20.604 23.296c-0.992-0.383-1.778-0.749-2.386-1.136-1.356-0.863-1.841-1.836-1.841-3.377 0-1.341 0.978-0.903 1.408-3.359 0.178-1.018 1.042-0.017 1.207-2.342 0-0.927-0.471-1.157-0.471-1.157s0.239-1.371 0.333-2.427c0.116-1.316-0.718-4.713-5.164-4.713-4.445 0-5.279 3.397-5.162 4.713 0.094 1.056 0.333 2.427 0.333 2.427s-0.471 0.23-0.471 1.157c0.166 2.325 1.030 1.324 1.208 2.342 0.43 2.456 1.407 2.018 1.407 3.359 0 1.823-2.675 3.377-2.675 3.377-0.608 0.387-1.393 0.752-2.386 1.136-3.213 1.241-5.944 2.448-5.944 3.729v4.086h26.548v-4.086c0-1.281-2.731-2.488-5.944-3.729z"></path>
        </symbol>
        <symbol id="icnAlert" viewBox="0 0 32 32">
            <path class="path1" d="M17.455 18.667h-2.788v-5.333h2.667v4.772l0.121 0.561zM17.455 24h-2.788v-2.667h2.667v1.684l0.121 0.982zM0 29.333h32l-16-26.667-16 26.667z"></path>
        </symbol>
        <symbol id="icnAlignJustify" viewBox="0 0 32 32">
            <path class="path1" d="M0 2.286h32v4.571h-32v-4.571z"></path>
            <path class="path2" d="M0 13.714h32v4.571h-32v-4.571z"></path>
            <path class="path3" d="M0 25.143h32v4.571h-32v-4.571z"></path>
        </symbol>
        <symbol id="icnArchive" viewBox="0 0 32 32">
            <path class="path1" d="M31.393 2.967l-1.846-2.24c-0.374-0.439-0.927-0.727-1.547-0.727h-24c-0.62 0-1.173 0.287-1.54 0.727l-1.846 2.24c-0.387 0.467-0.613 1.053-0.613 1.7v24.666c0 1.473 1.193 2.667 2.667 2.667h26.667c1.473 0 2.667-1.193 2.667-2.667v-24.666c0-0.647-0.227-1.233-0.607-1.7zM16 27.333l-7.333-9.333h5.333v-8h4v8h4.667l-6.667 9.333zM2.833 4l1.087-2h24l1.247 2h-26.333z"></path>
        </symbol>
        <symbol id="icnArrow" viewBox="0 0 32 32">
            <path class="path1" d="M22.261 0l2.739 2.909-12.324 13.091 12.324 13.091-2.739 2.909-15.261-15.807 15.261-16.193z"></path>
        </symbol>
        <symbol id="icnArrowUp" viewBox="0 0 32 32">
            <path class="path1" d="M2.667 16h10.667v16h5.333v-16h10.667l-13.333-16-13.333 16z"></path>
        </symbol>
        <symbol id="icnAttachment" viewBox="0 0 32 32">
            <path class="path1" d="M8.8 24.727c-4.864 0-8.8-3.911-8.8-8.727s3.936-8.727 8.8-8.727h16.8c3.536 0 6.4 2.84 6.4 6.347s-2.864 6.347-6.4 6.347h-13.6c-2.208 0-4-1.777-4-3.967s1.792-3.967 4-3.967h12v2.38h-12c-0.88 0-1.6 0.706-1.6 1.587s0.72 1.587 1.6 1.587h13.6c2.208 0 4-1.777 4-3.967s-1.792-3.967-4-3.967h-16.8c-3.536 0-6.4 2.84-6.4 6.347s2.864 6.347 6.4 6.347h15.2v2.38h-15.2z"></path>
        </symbol>
        <symbol id="icnAttherate" viewBox="0 0 32 32">
            <path class="path1" d="M27.57 4c-2.463-2.656-6.030-4-10.639-4-4.735 0-8.492 1.438-11.334 4.313s-4.388 6.781-4.578 11.687c-0.189 4.969 0.979 8.844 3.567 11.719 2.589 2.844 6.251 4.281 11.050 4.281 1.168 0 2.368-0.187 3.599-0.5 1.2-0.344 2.21-0.812 3.031-1.375l-0.663-3.281c-0.821 0.312-1.736 0.594-2.81 0.844-1.073 0.187-2.084 0.312-3.094 0.312-3.567 0-6.314-1.062-8.208-3.187-1.926-2.125-2.778-5-2.589-8.656 0.19-3.75 1.326-6.687 3.441-8.875 2.084-2.187 4.925-3.281 8.524-3.281 3.662 0 6.409 0.969 8.177 2.875s2.557 4.563 2.368 7.969c-0.126 1.656-0.568 3.031-1.358 4.094-0.821 1.094-1.863 1.625-3.189 1.625-0.347 0-0.6-0.188-0.789-0.563s-0.253-1.094-0.189-2.125l0.884-9.937h-0.095l0.063-0.063c-1.042-0.625-1.989-1.094-2.873-1.406s-2.020-0.469-3.441-0.469c-2.052 0-3.788 0.938-5.209 2.75-1.421 1.844-2.273 4.281-2.589 7.344-0.253 2.406 0.063 4.312 1.010 5.75s2.305 2.156 4.073 2.156c0.979 0 1.831-0.25 2.589-0.781 0.726-0.5 1.326-1.281 1.831-2.313 0.284 1 0.789 1.781 1.484 2.344s1.515 0.813 2.494 0.813c2.873 0 5.051-0.875 6.503-2.688s2.241-3.937 2.368-6.406c0.189-4.625-0.947-8.281-3.41-10.969v0zM14.279 11.5c0.631-1 1.578-1.5 2.841-1.5 0.252 0 0.473 0.031 0.726 0.063 0.253 0.062 0.505 0.094 0.789 0.125l-0.726 7.469c-0.379 0.906-0.821 1.531-1.326 1.844-0.505 0.344-1.073 0.5-1.705 0.5-0.726 0-1.231-0.312-1.547-1s-0.442-1.687-0.316-3.031c0.189-1.969 0.631-3.469 1.263-4.469v0z"></path>
        </symbol>
        <symbol id="icnBackspace" viewBox="0 0 32 32">
            <path class="path1" d="M0 15.935l8.884 8.598 1.508-1.465-6.221-6.034h27.829v-2.071h-27.829l6.221-6.034-1.508-1.465-8.884 8.469z"></path>
        </symbol>
        <symbol id="icnBell" viewBox="0 0 37 37">
            <path d="M 15.9286 27 C 15.9286 28.4295 16.8385 29.6576 18.7692 29.3654 C 21.815 28.9044 21.4012 28.6798 22.0714 27 L 15.9286 27 ZM 13 17.0588 L 13 22.5512 L 9.5 26 L 27.5714 26 L 25 22.5512 L 25 17.0588 C 25 13.2114 23.6486 11.3143 20 10.6982 L 20 8 L 18 8 L 18 10.6982 C 14.3514 11.3143 13 13.2114 13 17.0588 Z" fill="#cccccc"/>
        </symbol>
        <symbol id="icnBlock" viewBox="0 0 32 32">
            <path class="path1" d="M26.104 23.84l-17.944-17.944c2.168-1.68 4.88-2.696 7.84-2.696 7.072 0 12.8 5.728 12.8 12.8 0 2.96-1.016 5.672-2.696 7.84v0zM16 28.8c-7.072 0-12.8-5.728-12.8-12.8 0-2.96 1.016-5.672 2.696-7.84l17.944 17.944c-2.168 1.68-4.88 2.696-7.84 2.696v0zM16 0c-8.84 0-16 7.16-16 16s7.16 16 16 16c8.84 0 16-7.16 16-16s-7.16-16-16-16v0z"></path>
        </symbol>
        <symbol id="icnBriefcase" viewBox="0 0 32 32">
            <path class="path1" d="M13.6 25.263v0zM20 4v4h-8v-4h8zM29.067 8h-6.4v-3.579l-3.2-3.088h-6.933l-3.2 3.088v3.579h-6.416c-1.768 0-2.917 1.382-2.917 3.088v16.491c0 1.706 1.432 3.088 3.2 3.088h25.6c1.768 0 3.2-1.382 3.2-3.088v-16.982c0-1.706-1.432-2.597-3.2-2.597h0.267z"></path>
        </symbol>
        <symbol id="icnCake" viewBox="0 0 25 32">
            <path class="path1" d="M12.006 8.727c1.554 0 2.813-1.302 2.813-2.909 0-0.545-0.148-1.062-0.401-1.498l-2.412-4.32-2.413 4.32c-0.253 0.436-0.401 0.953-0.401 1.498 0 1.607 1.259 2.909 2.813 2.909zM18.47 23.251l-1.512-1.563-1.519 1.563c-1.836 1.899-5.043 1.899-6.878 0l-1.512-1.563-1.519 1.563c-0.907 0.953-1.47 1.477-2.772 1.477-1.020 0-1.969-0.335-2.757-0.895v6.713c0 0.799 0.633 1.454 1.407 1.454h22.52c0.773 0 1.407-0.655 1.407-1.454v-6.713c-0.788 0.56-1.73 0.895-2.757 0.895-1.301 0-3.185-0.523-4.106-1.477zM21.020 13.333h-7.687v-2.667h-2.667v2.667h-6.38c-2.328 0-4.287 1.956-4.287 4.364v1.998c0 1.571 1.238 2.851 2.757 2.851 0.739 0 0.774-0.298 1.295-0.837l3.010-3.105 3.003 3.098c1.041 1.077 2.855 1.077 3.896 0l3.010-3.098 3.003 3.098c0.521 0.538 1.863 0.837 2.602 0.837 1.519 0 2.757-1.28 2.757-2.851v-1.991c-0.014-2.407-1.985-4.364-4.313-4.364z"></path>
        </symbol>
        <symbol id="icnCalender" viewBox="0 0 32 32">
            <path class="path1" d="M3.097 9.29v19.613c0 1.71 1.386 3.097 3.097 3.097h19.613c1.71 0 3.097-1.386 3.097-3.097v-19.613h-25.806z"></path>
            <path class="path2" d="M6.194 4.129c-1.71 0-3.097 1.386-3.097 3.097v2.065h25.806v-2.065c0-1.71-1.386-3.097-3.097-3.097h-3.097v3.097h-6.194v-3.097h-2.065v3.097h-6.194v-3.097h-2.065z"></path>
            <path class="path3" d="M10.323 0v5.161h2.065v-5.161h-2.065z"></path>
            <path class="path4" d="M18.581 0h2.065v5.161h-2.065v-5.161z"></path>
            <path class="path5" d="M9.29 12.559h6.194v6.194h-6.194v-6.194z"></path>
            <path class="path6" d="M18.581 12.559h6.194v6.194h-6.194v-6.194z"></path>
            <path class="path7" d="M9.29 21.849h6.194v6.194h-6.194v-6.194z"></path>
            <path class="path8" d="M18.581 21.849h6.194v6.194h-6.194v-6.194z"></path>
        </symbol>
        <symbol id="icnCamera" viewBox="0 0 32 32">
            <path class="path1" d="M16 12.727c-2.651 0-4.8 2.199-4.8 4.909 0 2.712 2.149 4.909 4.8 4.909s4.8-2.197 4.8-4.909c0-2.71-2.149-4.909-4.8-4.909zM28.8 7.273h-3.84c-0.528 0-1.097 0.126-1.264-0.386l-0.992-3.046c-0.168-0.512-0.736-0.931-1.264-0.931h-10.88c-0.528 0-1.097 0.419-1.264 0.932l-0.992 2.501c-0.167 0.512-0.736 0.931-1.264 0.931h-3.84c-1.76 0-3.2 1.473-3.2 3.273v15.273c0 1.8 1.44 3.273 3.2 3.273h25.6c1.76 0 3.2-1.473 3.2-3.273v-15.273c0-1.8-1.44-3.273-3.2-3.273zM16 25.818c-4.418 0-8-3.663-8-8.182s3.582-8.182 8-8.182c4.418 0 8 3.663 8 8.182s-3.582 8.182-8 8.182zM27.68 13.379c-0.618 0-1.12-0.512-1.12-1.145s0.502-1.146 1.12-1.146c0.619 0 1.12 0.513 1.12 1.146s-0.502 1.145-1.12 1.145z"></path>
        </symbol>
        <symbol id="icnCheck" viewBox="0 0 32 32">
            <path class="path1" d="M29.275 3.429l-19.094 19.893-7.633-7.88-2.548 2.621 10.181 10.51 21.819-22.513-2.725-2.63z"></path>
        </symbol>
        <symbol id="icnCheckAll" viewBox="0 0 32 32">
            <path class="path1" d="M24.168 8.675l-1.918-1.938-8.65 8.71 1.918 1.938 8.65-8.71zM29.941 6.737l-14.424 14.658-5.766-5.806-1.925 1.931 7.691 7.744 16.483-16.589-2.059-1.938zM0 17.519l7.691 7.744 1.926-1.931-7.692-7.744-1.925 1.931zM0 17.519v0z"></path>
        </symbol>
        <symbol id="icnCheckCircle" viewBox="0 0 32 32">
            <path class="path1" d="M13.796 17.946l8.555-9.554 3.256 3.212-11.811 12.788-6.856-6.793 3.279-3.212 3.577 3.559zM16 32c8.82 0 16-7.179 16-16s-7.18-16-16-16c-8.821 0-16 7.179-16 16s7.179 16 16 16z"></path>
        </symbol>
        <symbol id="icnCheckMarkedStar" viewBox="0 0 32 32">
            <path class="path1" d="M31.846 17.069l-1.886-2.997 1.116-3.363c0.152-0.459-0.036-0.96-0.455-1.203l-3.050-1.771-0.564-3.497c-0.079-0.483-0.473-0.836-0.958-0.854l-3.517-0.141-2.116-2.838c-0.285-0.385-0.807-0.513-1.237-0.306l-3.184 1.52-3.176-1.52c-0.438-0.207-0.953-0.079-1.244 0.306l-2.111 2.838-3.522 0.141c-0.48 0.018-0.88 0.371-0.957 0.848l-0.559 3.503-3.054 1.771c-0.413 0.237-0.601 0.745-0.449 1.203l1.114 3.363-1.886 2.997c-0.255 0.409-0.188 0.938 0.159 1.276l2.541 2.454-0.286 3.533c-0.036 0.484 0.261 0.923 0.722 1.058l3.39 0.983 1.375 3.266c0.188 0.446 0.662 0.702 1.129 0.598l3.455-0.714 2.722 2.246c0.182 0.153 0.413 0.232 0.637 0.232 0.231 0 0.455-0.079 0.643-0.232l2.722-2.246 3.456 0.714c0.467 0.098 0.94-0.152 1.128-0.598l1.376-3.266 3.383-0.983c0.461-0.128 0.764-0.574 0.728-1.058l-0.285-3.533 2.54-2.454c0.346-0.337 0.412-0.867 0.158-1.276v0z"></path>
            <path class="path2" d="M9.172 14.343l-2.828 2.828 6.657 6.641 12.657-12.641-2.828-2.828-9.828 9.827-3.828-3.827z"></path>
        </symbol>
        <symbol id="icnChevronDown" viewBox="0 0 32 32">
            <path class="path1" d="M28.445 5.333l-12.445 13.271-12.445-13.271-3.555 3.792 16.44 17.541 15.56-17.541-3.555-3.792z"></path>
        </symbol>
        <symbol id="icnClose" viewBox="0 0 32 32">
            <path class="path1" d="M28.444 0l-12.444 12.442-12.444-12.442-3.556 3.556 12.442 12.444-12.442 12.444 3.556 3.556 12.444-12.444 12.444 12.444 3.556-3.556-12.443-12.444 12.443-12.444-3.556-3.556z"></path>
        </symbol>
        <symbol id="icnCloseBox" viewBox="0 0 32 32">
            <path class="path1" d="M21.5 10l2.5 2.5-5.499 5.5 5.499 5.5-2.5 2.5-5.5-5.499-5.5 5.499-2.5-2.5 5.499-5.5-5.499-5.5 2.5-2.5 5.5 5.499 5.5-5.499zM31.393 2.967l-1.846-2.24c-0.373-0.439-0.927-0.727-1.547-0.727h-24c-0.62 0-1.173 0.287-1.54 0.727l-1.847 2.24c-0.387 0.467-0.613 1.053-0.613 1.7v24.666c0 1.473 1.193 2.667 2.667 2.667h26.667c1.473 0 2.667-1.193 2.667-2.667v-24.666c0-0.647-0.227-1.233-0.607-1.7zM2.833 4l1.087-2h24l1.247 2h-26.333z"></path>
        </symbol>
        <symbol id="icnComment" viewBox="0 0 32 32">
            <path class="path1" d="M0 5v14c0 2.209 1.791 4 4 4h4v8l11.71-8h8.29c2.209 0 4-1.791 4-4v-14c0-2.209-1.791-4-4-4h-24c-2.209 0-4 1.791-4 4z"></path>
        </symbol>
        <symbol id="icnCommentOutline" viewBox="0 0 32 32">
            <path class="path1" d="M4.8 16.8h19.2v3.2h-19.2v-3.2zM4.8 10.4h16v3.2h-16v-3.2zM4.8 4h22.4v3.2h-22.4v-3.2zM3.2 0.8c-1.767 0-3.2 1.433-3.2 3.2v17.6c0 1.767 1.433 3.2 3.2 3.2h6.4l6.4 6.4 6.4-6.4h6.4c1.767 0 3.2-1.433 3.2-3.2v-17.6c0-1.767-1.433-3.2-3.2-3.2h-25.6z"></path>
        </symbol>
        <symbol id="icnDayAlert" viewBox="0 0 32 32">
            <path class="path1" d="M14 22h4v4h-4v-4zM14 11h4v8h-4v-8zM2 28.6c0 1.878 1.504 3.4 3.36 3.4h21.28c1.856 0 3.36-1.522 3.36-3.4v-21.2c0-1.878-1.504-3.4-3.36-3.4h-4.64v-4h-3v4h-7v-4h-3v4h-3.48c-1.856 0-3.52 1.522-3.52 3.4v21.2z"></path>
        </symbol>
        <symbol id="icnDelete" viewBox="0 0 32 32">
            <path class="path1" d="M4.87 9.846v21.489c0 0.576 0.205 0.665 0.853 0.665h20.234c0.649 0 1.174-0.467 1.174-1.043v-21.111h-22.261zM10.435 14.769h2.783v12.308h-2.783v-12.308zM18.783 14.769h2.783v12.308h-2.783v-12.308zM2.087 2.462v4.923h27.826v-4.923h-8.348v-2.462h-11.13v2.462h-8.348z"></path>
        </symbol>
        <symbol id="icnDescription" viewBox="0 0 32 32">
            <path class="path1" d="M16.8 11.2v-8.8l7.35 8.8h-7.35zM20.4 19.2h-11.6v-3.2h12.8v3.2h-1.2zM20.4 25.6h-11.6v-3.2h12.8v3.2h-1.2zM17.4 0h-10.415c-1.657 0-2.985 1.432-2.985 3.2v25.6c0 1.768 1.328 3.2 2.985 3.2h18.015c1.657 0 3-1.432 3-3.2v-19.2l-9-9.6h-1.6z"></path>
        </symbol>
        <symbol id="icnEdit" viewBox="0 0 32 32">
            <path class="path1" d="M30.467 0.77c-0.923-1.027-2.419-1.026-3.341 0l-1.113 1.238 3.341 3.716 1.113-1.239c0.921-1.026 0.922-2.69 0-3.716zM13.767 15.631l-1.112 4.954 4.453-1.238 11.133-12.385-3.341-3.716-11.132 12.385zM16.746 4.554l3.362-3.431h-19.266v30.877h30.278v-19.648l-3.364 3.429v12.788h-23.549v-24.015h12.54z"></path>
        </symbol>
        <symbol id="icnEllipse" viewBox="0 0 32 32">
            <path class="path1" d="M0 16c0-8.836 7.163-16 16-16s16 7.164 16 16c0 8.836-7.163 16-16 16s-16-7.164-16-16z"></path>
            <path class="path2" d="M9.6 16c0-3.534 2.865-6.4 6.4-6.4s6.4 2.866 6.4 6.4c0 3.534-2.865 6.4-6.4 6.4s-6.4-2.866-6.4-6.4z"></path>
        </symbol>
        <symbol id="icnEnvelope" viewBox="0 0 32 32">
            <path class="path1" d="M22.876 16l9.124 8.889v-17.778l-9.124 8.889zM21.396 17.004l-3.474 3.896c-0.513 0.576-1.196 0.894-1.922 0.894s-1.41-0.317-1.922-0.894l-3.474-3.895-10.604 10.424h32l-10.604-10.424zM17.282 19.352l14.676-14.78h-31.427l14.677 14.78c0.554 0.611 1.52 0.611 2.073 0zM8.635 16l-8.635-8.889v17.778l8.635-8.889z"></path>
        </symbol>
        <symbol id="icnExpandAll" viewBox="0 0 32 32">
            <path class="path1" d="M22.857 2.286h6.857v6.857h-6.857v-6.857zM22.857 22.857h6.857v6.857h-6.857v-6.857zM2.286 22.857h6.857v6.857h-6.857v-6.857zM2.286 2.286h6.857v6.857h-6.857v-6.857zM6.857 20.571v-9.143h4.571v-4.571h9.143v4.571h4.571v9.143h-4.571v4.571h-9.143v-4.571h-4.571zM4.571 11.429v9.143h-4.571v11.429h11.429v-4.571h9.143v4.571h11.429v-11.429h-4.571v-9.143h4.571v-11.429h-11.429v4.571h-9.143v-4.571h-11.429v11.429h4.571z"></path>
        </symbol>
        <symbol id="icnFacebook" viewBox="0 0 32 32">
            <path class="path1" d="M25.412 0.109h-3.974c0 0-9.207-1.565-9.207 7.145 0 1.862 0.152 4.11 0.152 4.11h-5.794v5.628h5.647v15.007h5.647v-15.007h7.529v-5.628h-7.529v-4.292c0 0-0.062-1.336 2.625-1.336h4.904v-5.628z"></path>
        </symbol>
        <symbol id="icnFavoriteOutline" viewBox="0 0 32 32">
            <path class="path1" d="M23.2 1.333c-2.784 0-5.456 1.295-7.2 3.333-1.744-2.038-4.416-3.333-7.2-3.333-4.936 0-8.8 3.861-8.8 8.792 0 6.034 5.44 10.966 13.68 18.439l2.32 2.102 2.32-2.102c8.24-7.474 13.68-12.405 13.68-18.439 0-4.931-3.864-8.792-8.8-8.792zM16.168 26.199l-0.168 0.151-0.168-0.151c-7.608-6.898-12.632-11.454-12.632-16.074 0-3.189 2.408-4.365 5.6-4.365 2.464 0 4.864 1.591 5.704 3.773h2.984c0.848-2.182 3.248-3.773 5.712-3.773 3.192 0 5.6 1.175 5.6 4.365 0 4.62-5.024 9.176-12.632 16.074z"></path>
        </symbol>
        <symbol id="icnFile" viewBox="0 0 32 32">
            <path class="path1" d="M29.47 9.625l-7.081-9.095c-0.303-0.304-0.681-0.531-1.135-0.531h-17.589c-0.908 0-1.665 0.758-1.665 1.667v28.741c0 0.91 0.757 1.592 1.665 1.592h24.67c0.908 0 1.665-0.682 1.665-1.592v-19.646c0-0.455-0.227-0.833-0.53-1.137v0zM26 28h-20v-24h10v8.998c0 0.91 2.757 3.002 3.665 3.002h6.335v12zM20 12v-8.11h0.573l6.098 8.11h-6.67zM20.422 11.444v0z"></path>
        </symbol>
        <symbol id="icnFileDocument" viewBox="0 0 32 32">
            <path class="path1" d="M8 22h10v4h-10v-4zM8 14h16v4h-16v-4zM8 6h16v4h-16v-4zM2 0v32h28v-32h-28z"></path>
        </symbol>
        <symbol id="icnFileDocumentText" viewBox="0 0 32 32">
            <path class="path1" d="M6.4 17.067h12.8v4.267h-12.8v-4.267zM6.4 8.533h21.333v4.267h-21.333v-4.267zM4.267 0c-2.356 0-4.267 1.91-4.267 4.267v23.467c0 2.356 1.91 4.267 4.267 4.267h23.467c2.356 0 4.267-1.91 4.267-4.267v-23.467c0-2.356-1.91-4.267-4.267-4.267h-23.467z"></path>
        </symbol>
        <symbol id="icnFillterDrop" viewBox="0 0 32 32">
            <path class="path1" d="M25.806 14.452h6.194l-3.097 3.097-3.097-3.097z"></path>
            <path class="path2" d="M13.419 21.677h1.032v1.032h-1.032v-1.032zM13.419 8.258v12.387h-1.032v3.097h3.097v-3.097h-1.032v-12.387h-1.032zM7.226 15.484h1.032v1.032h-1.032v-1.032zM7.226 8.258v6.194h-1.032v3.097h1.032v6.194h1.032v-6.194h1.032v-3.097h-1.032v-6.194h-1.032zM1.032 9.29h1.032v1.032h-1.032v-1.032zM1.032 11.355v12.387h1.032v-12.387h1.032v-3.097h-3.097v3.097h1.032z"></path>
        </symbol>
        <symbol id="icnFlag" viewBox="0 0 32 32">
            <path class="path1" d="M13.088 9.846v9.846l13.312-4.923-13.312-4.923zM8.096 8.681v23.319h3.328v-23.319c1.469-0.633 2.496-2.896 2.496-4.579 0-2.266-2.694-4.103-4.992-4.103s-3.328 1.837-3.328 4.103c0 1.683 1.027 3.945 2.496 4.579z"></path>
        </symbol>
        <symbol id="icnFlagLine" viewBox="0 0 32 32">
            <path class="path1" d="M10.667 0v21.333h18.667l-8-10.667 8-10.667h-18.667zM2.667 0v32h5.333v-32h-5.333z"></path>
        </symbol>
        <symbol id="icnGobal" viewBox="0 0 32 32">
            <path class="path1" d="M15.999 0c-8.821 0-15.999 7.179-15.999 16.001s7.178 15.999 15.999 15.999c8.823 0 16.001-7.178 16.001-15.999s-7.178-16.001-16.001-16.001v0zM29.646 16.001c0 3.12-1.059 5.999-2.827 8.3-0.5-0.392-1.032-1.445-0.531-2.539 0.503-1.1 0.635-3.647 0.519-4.637-0.111-0.989-0.625-3.377-2.023-3.4-1.397-0.021-2.354-0.482-3.185-2.139-1.722-3.446 3.234-4.108 1.511-6.018-0.482-0.535-2.972 2.207-3.337-1.448-0.024-0.259 0.226-0.65 0.56-1.054 5.405 1.816 9.313 6.925 9.313 12.935v0zM14.124 2.49c-0.325 0.635-1.186 0.893-1.71 1.37-1.139 1.032-1.629 0.889-2.245 1.878-0.617 0.991-2.61 2.417-2.61 3.133 0 0.714 1.007 1.561 1.51 1.395 0.503-0.165 1.829-0.156 2.61 0.119 0.781 0.277 6.525 0.552 4.696 5.407-0.581 1.543-3.122 1.282-3.799 3.839-0.101 0.375-0.452 1.976-0.477 2.5-0.041 0.809 0.573 3.864-0.208 3.864-0.785 0-2.895-2.731-2.895-3.226s-0.549-2.231-0.549-3.718c0-1.486-2.527-1.462-2.527-3.437 0-1.782 1.37-2.668 1.063-3.522-0.303-0.85-2.713-0.881-3.716-0.984 1.755-4.552 5.882-7.933 10.857-8.619v0zM11.709 28.95c0.818-0.433 0.902-0.991 1.645-1.022 0.851-0.039 1.541-0.332 2.5-0.542 0.851-0.187 2.371-1.048 3.712-1.16 1.128-0.091 3.356 0.060 3.958 1.151-2.16 1.432-4.748 2.27-7.525 2.27-1.5 0-2.942-0.247-4.291-0.696v0zM11.709 28.95v0z"></path>
        </symbol>
        <symbol id="icnGooglePlus" viewBox="0 0 32 32">
            <path class="path1" d="M28.571 11.429h-2.286v3.429h-3.429v2.286h3.429v3.429h2.286v-3.429h3.429v-2.286h-3.429v-3.429zM0 16c0 5.365 4.434 9.714 9.905 9.714s9.905-4.814 9.905-10.178c0-0.623-0.059-1.232-0.174-1.822h-10.493v4.571h5.955c-0.935 1.972-2.83 3.339-5.193 3.339-3.248 0-5.881-2.439-5.881-5.625s2.633-5.768 5.881-5.768c1.368 0 2.626 0.458 3.624 1.226l3.259-2.444c-1.782-1.69-4.209-2.729-6.884-2.729-5.47 0-9.905 4.349-9.905 9.714z"></path>
        </symbol>
        <symbol id="icnGPlus" viewBox="0 0 32 32">
            <path class="path1" d="M26.233 6.804v5.132h-1.635v-5.132h-4.918v-1.682h4.918v-5.123h1.635v5.123h4.925v1.682h-4.925zM14.495 5.275c1.518 0.898 2.323 2.744 2.323 4.784 0 1.872-1.002 3.379-2.418 4.521-1.384 1.118-1.645 1.584-1.645 2.534 0 0.81 1.652 2.015 2.411 2.604 2.644 2.051 3.142 3.34 3.179 5.903 0.049 3.407-3.335 6.379-8.758 6.379-4.758 0-8.745-2.238-8.745-5.439 0-4.83 3.302-6.391 8.060-6.391 0.519 0 0.994-0.014 1.485-0.014-0.651-0.652-1.177-1.216-1.177-2.204 0-0.589 0.18-1.15 0.434-1.651-0.258 0.017-0.522 0.035-0.793 0.035-3.909 0-6.184-2.839-6.184-6.397 0-3.484 3.464-6.606 7.619-6.606 2.141 0 8.188 0 8.188 0l-1.83 1.941h-2.15zM9.702 22.418c-3.029 0-5.532 1.176-5.532 3.389 0 2.256 2.233 4.096 5.323 4.096 4.346 0 5.86-1.723 5.86-3.982 0-0.273-0.007-0.547-0.099-0.796-1.049-2.707-4.427-2.707-5.553-2.707zM13.372 10.404c-0.361-2.828-1.724-4.956-3.818-5.022-2.094-0.063-3.93 1.909-3.566 4.738 0.36 2.832 2.352 4.729 4.447 4.796 2.094 0.062 3.298-1.678 2.938-4.511z"></path>
        </symbol>
        <symbol id="icnHart" viewBox="0 0 32 32">
            <path class="path1" d="M22.768 2.286c-4.235 0-6.267 3.935-6.768 5.047-0.718-1.542-2.344-5.047-6.768-5.047-5.099 0-9.232 4.319-9.232 9.648 0 1.432 0.242 2.809 0.666 4.125 0 0 0.384 1.187 0.725 1.84 3.892 8.355 14.609 11.815 14.609 11.815s10.718-3.46 14.609-11.815c0 0 0.502-1.114 0.725-1.84 0.405-1.322 0.666-2.693 0.666-4.125 0-5.329-4.133-9.648-9.232-9.648z"></path>
        </symbol>
        <symbol id="icnImage" viewBox="0 0 32 32">
            <path class="path1" d="M9.778 18.667l4.444 5.342 6.222-8.009 8 10.667h-24.889l6.222-8zM32 28.444v-24.889c0-1.964-1.591-3.556-3.556-3.556h-24.889c-1.964 0-3.556 1.591-3.556 3.556v24.889c0 1.964 1.591 3.556 3.556 3.556h24.889c1.964 0 3.556-1.591 3.556-3.556v0z"></path>
        </symbol>
        <symbol id="icnImageArea" viewBox="0 0 32 32">
            <path class="path1" d="M20.1 10.092c0-1.631 1.276-2.954 2.85-2.954s2.85 1.323 2.85 2.954-1.276 2.954-2.85 2.954c-1.574 0-2.85-1.323-2.85-2.954zM25.6 25.6h-22.4l5.6-16 7.467 10 3.733-3 5.6 9zM0 3.2v25.6h32v-25.6h-32z"></path>
        </symbol>
        <symbol id="icnImagefilePlus" viewBox="0 0 32 32">
            <path class="path1" d="M25.263 0v5.053h-5.053v1.684h5.053v5.053h1.684v-5.053h5.053v-1.684h-5.053v-5.053h-1.684zM0 5.053v26.947h26.947v-16.842h-1.684v13.474h-0.842l-4.211-8.421-4.211 8.421h-0.211l-7.368-11.789-6.737 10.779v-20.884h15.158v-1.684h-16.842z"></path>
        </symbol>
        <symbol id="icnIndentLeft" viewBox="0 0 32 32">
            <path class="path1" d="M22.857 9.143v13.714l9.143-6.857-9.143-6.857zM0 13.714v4.571h18.286v-4.571h-18.286zM0 25.143v4.571h32v-4.571h-32zM0 2.286v4.571h32v-4.571h-32z"></path>
        </symbol>
        <symbol id="icnInfo" viewBox="0 0 32 32">
            <path class="path1" d="M16 32c-8.821 0-16-7.179-16-16s7.179-16 16-16c8.82 0 16 7.179 16 16s-7.18 16-16 16zM10.66 15.896c0 0.17 0.169 0.37 0.367 0.37 0.507 0 1.861-2.477 2.905-2.477 0.226 0 0.48 0.257 0.282 0.768l-1.974 5.012c-0.198 0.485-1.157 2.819-1.157 4.186 0 1.082 0.705 1.566 1.721 1.566 2.849 0 6.148-3.531 6.148-4.357 0-0.256-0.197-0.427-0.338-0.427-0.395 0-1.947 2.421-2.793 2.421-0.226 0-0.338-0.2-0.338-0.399 0-0.455 0.31-1.168 0.479-1.595l2.031-5.552c1.016-2.762-0.282-3.502-1.495-3.502-1.636 0-3.103 0.825-4.23 1.907-0.367 0.37-1.608 1.566-1.608 2.078zM18.049 6.671c-1.241 0-2.313 1.025-2.313 2.277 0 1.168 0.762 1.937 1.919 1.937 1.269 0 2.341-0.968 2.341-2.278 0-1.168-0.818-1.936-1.947-1.936z"></path>
        </symbol>
        <symbol id="icnInfoOutline" viewBox="0 0 32 32">
            <path class="path1" d="M3 16c0-7.18 5.82-13 13-13s13 5.82 13 13c0 7.18-5.82 13-13 13s-13-5.82-13-13zM0 16c0 8.837 7.163 16 16 16s16-7.163 16-16c0-8.837-7.163-16-16-16s-16 7.163-16 16zM14 14v10h4v-10h-4zM14 8v4h4v-4h-4z"></path>
        </symbol>
        <symbol id="icnLanguage" viewBox="0 0 32 32">
            <path class="path1" d="M15.992 0c-8.84 0-15.992 7.16-15.992 16s7.152 16 15.992 16c8.84 0 16.008-7.16 16.008-16s-7.168-16-16.008-16zM27.072 9.333h-4.719c-0.52-2-1.249-3.92-2.209-5.696 2.945 1.008 5.392 3.048 6.928 5.696zM16 2.723c1.336 1.92 2.376 4.323 3.056 6.611h-6.112c0.68-2.288 1.72-4.69 3.056-6.611zM3.616 18.667c-0.264-1.024-0.416-0.229-0.416-1.333s0.152-2.976 0.416-4h5.4c-0.128 1.048-0.216 2.912-0.216 4s0.088 0.286 0.224 1.333h-5.408zM4.92 22.667h4.72c0.52 2 1.248 3.92 2.208 5.704-2.944-1.008-5.392-3.056-6.928-5.704zM9.64 9.333h-4.72c1.536-2.648 3.984-4.696 6.928-5.704-0.96 1.784-1.688 3.704-2.208 5.704zM16 29.277c-1.328-1.92-2.368-4.322-3.056-6.61h6.112c-0.688 2.288-1.728 4.691-3.056 6.61zM19.744 18.667h-7.488c-0.152-1.048-0.256-1.045-0.256-2.133s0.104-2.152 0.256-3.2h7.488c0.152 1.048 0.256 2.912 0.256 4s-0.104 0.286-0.256 1.333zM20.152 28.629c0.959-1.784 1.687-3.963 2.208-5.963h4.72c-1.544 2.648-3.991 4.955-6.927 5.963zM22.976 18.667c0.128-1.048 0.224-0.245 0.224-1.333s-0.088-2.952-0.224-4h5.4c0.264 1.024 0.424 2.896 0.424 4s-0.152 0.309-0.424 1.333h-5.4z"></path>
        </symbol>
        <symbol id="icnLike" viewBox="0 0 32 32">
            <path class="path1" d="M20.91 2.503c0 0.504 0.503 0.504 0.503 1.51 0 1.51-1.006 4.028-1.509 5.538 0.503 0.504 1.509 0.504 9.053 0.504 3.521 0.503 3.018 2.014 3.018 4.531 0 3.021 0 3.021-2.515 8.055-1.509 2.014-1.494 6.572-4.008 7.075s-17.415 0.181-17.415 0.181l0.010-17.829 11.065-10.069c0 0 0.792 0.503 1.798 0.503zM27.952 14.083c-0.503 1.007-0.503 2.769-1.006 3.776-1.006 2.517-2.012 5.538-3.521 8.055h-11.354v-11.579l3.018-3.273c2.515 4.531 8.336 2.014 12.863 3.021zM6.036 11.817v18.124h-6.036v-18.124h6.036z"></path>
            <path class="path2" d="M27.787 18.25c-4.5-1-10.287 1.5-12.787-3l-3 3.25v11.5h11.287c1.5-2.5 2.5-5.5 3.5-8 0.5-1 0.5-2.75 1-3.75z"></path>
        </symbol>
        <symbol id="icnLinkedin" viewBox="0 0 32 32">
            <path class="path1" d="M26.667 32v-10.994c0-2.831-1.448-4.764-3.903-4.764-1.874 0-4.272 1.303-4.762 2.561-0.179 0.449-0.224 1.078-0.224 1.708v11.49h-5.333v-21.333h5.398l-0.011 3.685c0.892-1.439 2.962-3.416 6.622-3.416 4.462 0 7.547 2.622 7.547 9.092v11.972h-5.333zM7.111 32h-5.333v-21.333h5.333v21.333z"></path>
            <path class="path2" d="M4.444 1.481c1.964 0 3.556 1.592 3.556 3.556s-1.592 3.556-3.556 3.556c-1.964 0-3.556-1.592-3.556-3.556s1.592-3.556 3.556-3.556z"></path>
        </symbol>
        <symbol id="icnLock" viewBox="0 0 32 32">
            <path class="path1" d="M12 21.965c0-2.217 1.791-4.014 4-4.014s4 1.797 4 4.014c0 2.217-1.791 4.014-4 4.014s-4-1.797-4-4.014zM20 10.034h-8v-6.131h8v6.131zM8 10.034c-2.209 0.001-4 1.798-4 4.015v13.937c0 2.217 1.791 4.014 4 4.014h16c2.209 0 4-1.797 4-4.014v-13.937c0-2.217-1.791-4.015-4-4.015v-6.020c0-2.217-1.791-4.014-4-4.014h-8c-2.209 0-4 1.797-4 4.014v6.020z"></path>
        </symbol>
        <symbol id="icnLockMarke" viewBox="0 0 32 32">
            <path class="path1" d="M28.864 0.196c-0.694-0.333-1.516-0.237-2.118 0.245-2.499 2.009-6.997 2.008-9.492 0.001-0.732-0.59-1.775-0.589-2.508-0.001-2.498 2.009-6.998 2.008-9.492 0.001-0.601-0.483-1.425-0.579-2.117-0.246-0.694 0.332-1.136 1.034-1.136 1.804l-0.001 16c0 6.269 5.025 11.472 13.442 13.921 0.183 0.052 0.37 0.079 0.559 0.079s0.376-0.027 0.558-0.079c8.417-2.448 13.441-7.651 13.441-13.921v-16c0-0.769-0.442-1.471-1.136-1.804z"></path>
            <path class="path2" d="M14 16.983c0-1.109 0.896-2.007 2-2.007s2 0.898 2 2.007c0 1.108-0.896 2.007-2 2.007s-2-0.899-2-2.007zM18 12h-4v-4h4v4zM12 11.017c-1.104 0.001-2 0.899-2 2.008v6.969c0 1.108 0.896 2.007 2 2.007h8c1.104 0 2-0.899 2-2.007v-6.969c0-1.108-0.896-2.007-2-2.008v-3.010c0-1.108-0.896-2.007-2-2.007h-4c-1.104 0-2 0.898-2 2.007v3.010z"></path>
        </symbol>
        <symbol id="icnMapMarke" viewBox="0 0 32 32">
            <path class="path1" d="M12.572 11.79c0-1.86 1.535-3.369 3.428-3.369s3.428 1.508 3.428 3.369c0 1.86-1.535 3.368-3.428 3.368s-3.428-1.508-3.428-3.368zM4 11.79c0 6.511 12 20.21 12 20.21s12-13.699 12-20.21c0-6.511-5.373-11.79-12-11.79s-12 5.278-12 11.79z"></path>
        </symbol>
        <symbol id="icnMedia" viewBox="0 0 32 32">
            <path class="path1" d="M11.251 10.044l11.030 15.067h-22.060l11.030-15.067z"></path>
            <path class="path2" d="M0 10.887c0-0.982 0.793-1.778 1.77-1.778s1.77 0.796 1.77 1.778-0.793 1.778-1.77 1.778c-0.978 0-1.77-0.796-1.77-1.778z"></path>
            <path class="path3" d="M18.213 6.444l-13.787 19.111h27.575l-4.803-6.657c-0.736 0.336-1.553 0.522-2.414 0.522-3.226 0-5.842-2.627-5.842-5.867 0-1.53 0.583-2.923 1.538-3.967l-2.266-3.142z"></path>
            <path class="path4" d="M24.34 10.887h0.885v2.223h2.213v0.889h-2.213v2.223h-0.885v-2.223h-2.213v-0.889h2.213v-2.223zM19.915 13.554c0 2.701 2.179 4.89 4.868 4.89s4.868-2.189 4.868-4.89c0-2.7-2.179-4.89-4.868-4.89s-4.868 2.189-4.868 4.89z"></path>
        </symbol>
        <symbol id="icnMediaAlbum" viewBox="0 0 32 32">
            <path class="path1" d="M3.433 0h25.288c0.752 0 1.362 0.61 1.362 1.362v29.277c0 0.752-0.61 1.362-1.362 1.362h-25.288c-0.752 0-1.362-0.61-1.362-1.362v-29.277c0-0.752 0.61-1.362 1.362-1.362z"></path>
            <path class="path2" d="M5.183 1.75h21.106c0.752 0 1.362 0.61 1.362 1.362v25.776c0 0.752-0.61 1.362-1.362 1.362h-21.106c-0.752 0-1.362-0.61-1.362-1.362v-25.776c0-0.752 0.61-1.362 1.362-1.362z"></path>
            <path class="path3" d="M7.031 16.087l10.606 14.587h-21.211l10.606-14.587z"></path>
            <path class="path4" d="M18.422 12.693l13.748 18.66h-27.496l13.748-18.66z"></path>
            <path class="path5" d="M20.596 9.979c0-0.937 0.762-1.696 1.702-1.696s1.702 0.759 1.702 1.696c0 0.937-0.762 1.696-1.702 1.696s-1.702-0.759-1.702-1.696z"></path>
        </symbol>
        <symbol id="icnMediaArea" viewBox="0 0 32 32">
            <path class="path1" d="M11.403 0l-8.203 8.751v23.249h25.6v-32h-17.397zM26.88 30.080h-21.76v-20.48h7.68v-7.68h14.080v28.16zM7.040 24.849v3.311h17.92v-3.311l-6.318-9.052-2.645 4.107-3.348-1.467-5.609 6.412zM13.090 14.509c0-1.551-1.246-2.809-2.785-2.809-1.536 0-2.78 1.258-2.78 2.809 0 1.556 1.244 2.813 2.78 2.813 1.539 0 2.785-1.258 2.785-2.813z"></path>
        </symbol>
        <symbol id="icnMediaMultiple" viewBox="0 0 32 32">
            <path class="path1" d="M0 7.68v24.32h32v-24.32h-32zM30.080 30.080h-28.16v-20.48h28.16v20.48zM27.52 17.28h-5.76v-5.76h5.76v5.76zM18.56 23.68h-14.080v-1.92h14.080v1.92zM18.56 27.52h-14.080v-1.92h14.080v1.92zM30.080 5.76h-28.16v-1.92h28.16v1.92zM27.52 1.92h-23.68v-1.92h23.68v1.92zM28 2v0z"></path>
        </symbol>
        <symbol id="icnMenuLeft" viewBox="0 0 32 32">
            <path class="path1" d="M25.6 0v32l-19.2-16 19.2-16z"></path>
        </symbol>
        <symbol id="icnPackageLeft" viewBox="0 0 32 32">
            <path class="path1" d="M24 16v5.333h-5.333v5.333l-10.667-8 10.667-8v5.333h5.333zM0.809 3.956c-0.507 0.622-0.809 1.404-0.809 2.267v22.222c0 1.964 1.591 3.555 3.555 3.555h24.889c1.964 0 3.555-1.591 3.555-3.555v-22.222c0-0.863-0.302-1.645-0.818-2.267l-2.462-2.987c-0.489-0.586-1.226-0.969-2.053-0.969h-21.333c-0.826 0-1.565 0.382-2.062 0.969l-2.462 2.987zM28.222 5.333h-24.444l1.662-2.667h21.333l1.449 2.667z"></path>
        </symbol>
        <symbol id="icnPencil" viewBox="0 0 32 32">
            <path class="path1" d="M19.898 5.34l6.509 6.542-16.478 16.558-6.506-6.541 16.474-16.558zM31.348 3.763l-2.903-2.917c-1.122-1.127-2.944-1.127-4.070 0l-2.781 2.795 6.509 6.541 3.244-3.26c0.87-0.874 0.87-2.285 0-3.159v0zM0.018 31.093c-0.118 0.536 0.363 1.016 0.896 0.885l7.254-1.767-6.506-6.541-1.644 7.423zM0.018 31.093v0z"></path>
        </symbol>
        <symbol id="icnPencilOff" viewBox="0 0 32 32">
            <path class="path1" d="M3.015 23.106l-3.015 8.894 9.246-2.059-6.231-6.835zM24.648 0l-18.963 19.451 7.352 7.526 18.963-19.451-7.352-7.526z"></path>
            <path class="path2" d="M5.473 1.455l24.934 25.575-1.467 1.504-24.934-25.575 1.467-1.504z"></path>
        </symbol>
        <symbol id="icnPerson" viewBox="0 0 32 32">
            <path class="path1" d="M16 20c-5.33 0-16 2.67-16 8v4h32v-4c0-5.33-10.67-8-16-8v0zM16 16c4.42 0 8-3.59 8-8 0-4.42-3.58-8-8-8s-8 3.58-8 8c0 4.41 3.58 8 8 8v0z"></path>
        </symbol>
        <symbol id="icnPin" viewBox="0 0 32 32">
            <path class="path1" d="M10.286 4.571v9.143l-4.571 6.857h9.143v11.429h2.286v-11.429h9.143l-4.571-6.857v-9.143l4.571-4.571h-20.571l4.571 4.571z"></path>
        </symbol>
        <symbol id="icnPlayFill" viewBox="0 0 32 32">
            <path class="path1" d="M22.66 16.634c-0.551 0.78-1.635 0.97-2.422 0.424l-11.393-7.914c-0.787-0.546-0.978-1.622-0.427-2.402s1.635-0.97 2.422-0.424l11.393 7.914c0.787 0.546 0.978 1.622 0.427 2.402zM3.368 3.064v25.872c0 2.858 1.952 3.903 4.36 2.335l19.097-12.432c2.408-1.568 2.408-4.11 0-5.678l-19.097-12.432c-2.408-1.568-4.36-0.523-4.36 2.335z"></path>
        </symbol>
        <symbol id="icnPlus" viewBox="0 0 32 32">
            <path class="path1" d="M12.8 0v12.8h-12.8v6.4h12.8v12.8h6.4v-12.8h12.8v-6.4h-12.8v-12.8h-6.4z"></path>
        </symbol>
        <symbol id="icnRefresh" viewBox="0 0 32 32">
            <path class="path1" d="M3.295 12.278c-0.968 1.867-1.517 3.995-1.517 6.249 0 7.441 5.97 13.474 13.333 13.474s13.333-6.032 13.333-13.474c0-7.441-5.97-13.474-13.333-13.474v-5.053l-8.333 6.737 8.333 6.737v-4.573c5.261 0 9.525 4.31 9.525 9.626s-4.265 9.626-9.525 9.626-9.525-4.31-9.525-9.626c0-1.020 0.159-2 0.45-2.922l-2.741-3.327z"></path>
        </symbol>
        <symbol id="icnResize" viewBox="0 0 32 32">
            <path class="path1" d="M7.849 26.667l5.548-5.549-2.514-2.514-5.549 5.548v-6.373h-3.556v12.444h12.444v-3.556h-6.373zM5.333 26.667v-0.613l0.613 0.613h-0.613zM26.667 7.849v6.373h3.556v-12.444h-12.444v3.556h6.373l-5.548 5.549 2.514 2.514 5.549-5.548zM26.667 5.333v0.613l-0.613-0.613h0.613z"></path>
        </symbol>
        <symbol id="icnSchool" viewBox="0 0 32 32">
            <path class="path1" d="M16 3.333l-16 8.444 16.242 8.445 13.091-6.91v9.355h2.667v-11.259l-16-8.074zM5.333 17.661v5.63l11.151 5.376 10.182-5.376v-5.63l-10.182 5.376-11.151-5.376z"></path>
        </symbol>
        <symbol id="icnSearch" viewBox="0 0 32 32">
            <path class="path1" d="M3.062 13.729c0-5.881 4.786-10.666 10.667-10.666s10.669 4.784 10.669 10.666c0 5.882-4.787 10.667-10.669 10.667s-10.667-4.785-10.667-10.667zM32 30.213l-7.71-7.712c1.979-2.38 3.169-5.435 3.169-8.772 0-7.583-6.146-13.729-13.729-13.729-7.581 0-13.729 6.147-13.729 13.729s6.148 13.729 13.729 13.729c3.338 0 6.392-1.191 8.771-3.17l7.71 7.712 1.79-1.787z"></path>
        </symbol>
        <symbol id="icnSetting" viewBox="0 0 32 32">
            <path class="path1" d="M32 18.754v-5.508h-2.941c-0.345-1.641-0.992-3.171-1.879-4.53l2.082-2.082-3.895-3.895-2.082 2.081c-1.359-0.887-2.889-1.534-4.53-1.879v-2.942h-5.508v2.942c-1.641 0.344-3.171 0.992-4.53 1.879l-2.082-2.081-3.895 3.895 2.082 2.082c-0.888 1.359-1.535 2.889-1.88 4.53h-2.941v5.508h2.941c0.345 1.641 0.992 3.17 1.88 4.53l-2.082 2.082 3.895 3.895 2.082-2.081c1.359 0.887 2.888 1.534 4.529 1.879v2.942h5.508v-2.942c1.641-0.345 3.171-0.992 4.529-1.879l2.082 2.081 3.895-3.895-2.082-2.082c0.887-1.36 1.535-2.889 1.879-4.53h2.941zM16 24.006c-4.421 0-8.007-3.585-8.007-8.006s3.585-8.006 8.007-8.006 8.007 3.584 8.007 8.006c0 4.421-3.585 8.006-8.007 8.006z"></path>
        </symbol>
        <symbol id="icnSettingDrop" viewBox="0 0 32 32">
            <path class="path1" d="M19.2 17.92v-3.84h-2.139c-0.173-0.719-0.444-1.398-0.803-2.023l1.487-1.487-2.715-2.716-1.457 1.457c-0.631-0.383-1.321-0.676-2.054-0.866v-2.045h-3.84v2.045c-0.734 0.189-1.423 0.483-2.054 0.866l-1.457-1.457-2.715 2.716 1.487 1.487c-0.359 0.625-0.63 1.304-0.803 2.023h-2.139v3.84h2.204c0.19 0.687 0.472 1.332 0.833 1.928l-1.583 1.583 2.715 2.716 1.614-1.614c0.588 0.338 1.225 0.597 1.897 0.77v2.298h3.84v-2.298c0.672-0.173 1.309-0.432 1.897-0.77l1.614 1.614 2.715-2.716-1.583-1.583c0.361-0.595 0.643-1.241 0.833-1.928h2.204zM9.6 18.689c-1.485 0-2.688-1.204-2.688-2.689s1.203-2.688 2.688-2.688c1.485 0 2.688 1.203 2.688 2.688s-1.203 2.689-2.688 2.689z"></path>
            <path class="path2" d="M25.6 14.933h6.4l-3.2 3.2-3.2-3.2z"></path>
        </symbol>
        <symbol id="icnShare" viewBox="0 0 32 32">
            <path class="path1" d="M26.118 20.337c-1.872 0-3.515 0.882-4.591 2.236l-9.993-5.066c0.131-0.481 0.222-0.981 0.222-1.507 0-0.575-0.106-1.116-0.264-1.634l9.942-5.043c1.076 1.416 2.762 2.333 4.684 2.333 3.257 0 5.882-2.603 5.882-5.825 0-3.221-2.625-5.831-5.882-5.831-3.242 0-5.875 2.61-5.875 5.831 0 0.526 0.093 1.025 0.222 1.507l-9.985 5.064c-1.076-1.35-2.725-2.233-4.598-2.233-3.248 0-5.882 2.61-5.882 5.831 0 3.223 2.634 5.831 5.882 5.831 1.922 0 3.608-0.93 4.684-2.347l9.942 5.044c-0.158 0.524-0.272 1.067-0.272 1.641 0 3.223 2.64 5.831 5.882 5.831 3.25 0 5.882-2.608 5.882-5.831 0-3.22-2.633-5.831-5.882-5.831v0zM26.118 20.337v0z"></path>
        </symbol>
        <symbol id="icnStar" viewBox="0 0 32 32">
            <path class="path1" d="M16 0l4.944 10.534 11.056 1.689-8 8.199 1.889 11.578-9.889-5.466-9.889 5.466 1.889-11.578-8-8.199 11.056-1.689 4.944-10.534z"></path>
        </symbol>
        <symbol id="icnStepBackward" viewBox="0 0 32 32">
            <path class="path1" d="M27.2 0v30.968l-18.754-15.484 18.754-15.484z"></path>
            <path class="path2" d="M4.8 1.032h3.125v30.968h-3.125v-30.968z"></path>
        </symbol>
        <symbol id="icnTag" viewBox="0 0 32 32">
            <path class="path1" d="M28.994 0h-9.018c-1.653 0-3.962 0.957-5.131 2.126l-13.969 13.968c-1.169 1.169-1.169 3.083 0 4.251l10.778 10.778c1.169 1.169 3.082 1.169 4.251 0l13.969-13.968c1.169-1.169 2.125-3.478 2.125-5.131v-9.018c0-1.653-1.353-3.006-3.006-3.006v0zM25 10c-1.657 0-3-1.343-3-3s1.343-3 3-3c1.657 0 3 1.343 3 3s-1.343 3-3 3v0zM25 10v0z"></path>
        </symbol>
        <symbol id="icnTextfilePlus" viewBox="0 0 32 32">
            <path class="path1" d="M15.158 21.895h-10.105v3.368h10.105v-3.368zM20.211 16.842h-15.158v3.368h15.158v-3.368zM20.211 11.789h-15.158v3.368h15.158v-3.368zM25.263 0v5.053h-5.053v1.684h5.053v5.053h1.684v-5.053h5.053v-1.684h-5.053v-5.053h-1.684zM0 5.053v26.947h26.947v-16.842h-1.684v15.158h-23.579v-23.579h15.158v-1.684h-16.842z"></path>
        </symbol>
        <symbol id="icnToday" viewBox="0 0 32 32">
            <path class="path1" d="M10 14h8v8h-8v-8zM26.889 28h-20.889v-18h20v16.87l0.889 1.13zM27.556 4h-1.556v-4h-4v4h-12v-4h-4v4h-1.571c-1.719 0-2.429 1.347-2.429 3.012v21.976c0 1.665 1.392 3.012 3.111 3.012h21.778c1.719 0 3.111-1.347 3.111-3.012v-22.023c0-1.664-1.392-2.965-3.111-2.965h0.667z"></path>
        </symbol>
        <symbol id="icnTwitter" viewBox="0 0 32 32">
            <path class="path1" d="M32 6.502c-1.178 0.501-2.443 0.837-3.771 0.991 1.356-0.778 2.397-2.011 2.887-3.477-1.268 0.72-2.674 1.241-4.168 1.525-1.198-1.223-2.904-1.985-4.792-1.985-3.626 0-6.566 2.813-6.566 6.284 0 0.49 0.058 0.972 0.17 1.432-5.456-0.264-10.294-2.765-13.532-6.565-0.565 0.927-0.889 2.005-0.889 3.157 0 2.182 1.159 4.103 2.921 5.23-1.076-0.032-2.089-0.316-2.974-0.787-0.001 0.026-0.001 0.052-0.001 0.080 0 3.045 2.264 5.584 5.266 6.161-0.551 0.144-1.131 0.219-1.729 0.219-0.423 0-0.835-0.037-1.235-0.112 0.835 2.497 3.26 4.314 6.133 4.363-2.247 1.686-5.078 2.692-8.153 2.692-0.53 0-1.053-0.030-1.566-0.090 2.905 1.783 6.356 2.824 10.064 2.824 12.076 0 18.679-9.574 18.679-17.877 0-0.271-0.006-0.544-0.018-0.813 1.283-0.886 2.395-1.993 3.275-3.253z"></path>
        </symbol>
        <symbol id="icnUnlock" viewBox="0 0 32 32">
            <path class="path1" d="M9 21.965c0-2.217 1.791-4.014 4-4.014s4 1.797 4 4.014c0 2.217-1.791 4.014-4 4.014s-4-1.797-4-4.014zM5 10.034c-2.209 0.001-4 1.798-4 4.015v13.937c0 2.217 1.791 4.014 4 4.014h16c2.209 0 4-1.797 4-4.014v-13.937c0-2.217-1.791-4.015-4-4.015v-0.111h-2v-6.021h8v6.021h4v-5.909c0-2.217-1.791-4.014-4-4.014h-8c-2.209 0-4 1.797-4 4.014v5.909h-10v0.111z"></path>
        </symbol>
        <symbol id="icnUpload" viewBox="0 0 32 32">
            <path class="path1" d="M15 6.877v16.973h4v-16.973l5.61 5.881 2.765-2.883-10.415-9.875-11.103 10.264 2.21 2.626 6.933-6.013zM1 17.737v14.263h30v-14.263h-4v10.188h-22v-10.188h-4z"></path>
        </symbol>
         <symbol id="icnVerticalDot" viewBox="0 0 32 32">
            <path  d="M 14 22 C 14 23.1045 14.8954 24 16 24 C 17.1046 24 18 23.1045 18 22 C 18 20.8955 17.1046 20 16 20 C 14.8954 20 14 20.8955 14 22 ZM 14 16 C 14 17.1045 14.8954 18 16 18 C 17.1046 18 18 17.1045 18 16 C 18 14.8955 17.1046 14 16 14 C 14.8954 14 14 14.8955 14 16 ZM 14 10 C 14 11.1045 14.8954 12 16 12 C 17.1046 12 18 11.1045 18 10 C 18 8.8955 17.1046 8 16 8 C 14.8954 8 14 8.8955 14 10 Z"/>
        </symbol>
        <symbol id="icnVerticalListAlt" viewBox="0 0 32 32">
            <path class="path1" d="M14.4 9.6h3.2v16h-3.2v-16zM20.8 14.4h3.2v11.2h-3.2v-11.2zM8 14.4h3.2v11.2h-3.2v-11.2zM0 3.2v25.6h32v-25.6h-32z"></path>
        </symbol>
        <symbol id="icnVideo" viewBox="0 0 32 32">
            <path class="path1" d="M4 9.333h16v2.667h-16v-2.667zM0 8v16c0 1.473 1.194 2.667 2.667 2.667h18.667c1.473 0 2.667-1.194 2.667-2.667v-5.040l8 4.447v-14.815l-8 4.447v-5.040c0-1.473-1.194-2.667-2.667-2.667h-18.667c-1.473 0-2.667 1.194-2.667 2.667z"></path>
        </symbol>
        <symbol id="minus" viewBox="0 0 32 32">
            <path class="path1" d="M12.308 12.308v0h-12.308v7.385h32v-7.385h-19.692z"></path>
        </symbol>
        <symbol id="plusIcn" viewBox="0 0 32 32">
            <path class="path1" d="M12.308 0v12.308h-12.308v7.385h12.308v12.308h7.385v-12.308h12.308v-7.385h-12.308v-12.308h-7.385z"></path>
        </symbol>
        <symbol id="skills" viewBox="0 0 27 32">
            <path class="path1" d="M0.846 15.285c0.388 0.765 0.954 1.542 1.554 2.365 1.375 1.886 2.933 4.022 2.183 6.211-0.055 0.161-0.007 0.338 0.124 0.455l8.492 7.562c0.089 0.080 0.207 0.123 0.328 0.123 0.043 0 0.087-0.006 0.13-0.017 0.162-0.043 0.287-0.162 0.33-0.314 0.523-1.872 1.971-4.997 3.627-5.417 0.139-0.035 0.318-0.052 0.548-0.052 0.411 0 0.924 0.056 1.467 0.114 0.634 0.068 1.289 0.139 1.902 0.139 1.379 0 2.121-0.398 2.267-1.218 0.085-0.475 0.153-0.964 0.219-1.437 0.277-1.991 0.562-4.049 2.206-5.094 0.962-0.612 0.175-1.907-0.587-3.159-0.507-0.834-1.031-1.695-0.951-2.254 0.030-0.208 0.060-0.413 0.090-0.615 0.485-3.287 0.867-5.883-2.060-8.692-0.005-0.004-0.010-0.009-0.015-0.014-3.001-2.634-6.259-3.97-9.683-3.97-5.121 0-9.041 2.982-10.551 4.744-2.12 2.475-3.408 7.010-1.62 10.54z"></path>
            <path class="path2" d="M18.256 11.192l-0.79-0.179c-0.021-0.326-0.077-0.652-0.166-0.972l0.685-0.432c0.246-0.155 0.32-0.48 0.165-0.727l-0.905-1.436c-0.155-0.246-0.481-0.32-0.727-0.165l-0.685 0.431c-0.25-0.219-0.52-0.409-0.805-0.569l0.179-0.79c0.064-0.283-0.113-0.566-0.397-0.631l-1.655-0.376c-0.284-0.065-0.566 0.113-0.63 0.397l-0.179 0.79c-0.326 0.021-0.652 0.077-0.972 0.166l-0.432-0.685c-0.155-0.246-0.481-0.32-0.727-0.165l-1.436 0.905c-0.246 0.155-0.32 0.48-0.165 0.727l0.432 0.685c-0.219 0.25-0.41 0.52-0.569 0.805l-0.79-0.179c-0.284-0.064-0.566 0.113-0.63 0.397l-0.376 1.656c-0.065 0.284 0.113 0.566 0.397 0.63l0.79 0.179c0.021 0.326 0.077 0.652 0.166 0.972l-0.685 0.432c-0.246 0.155-0.32 0.48-0.165 0.727l0.905 1.436c0.155 0.246 0.481 0.32 0.727 0.165l0.685-0.431c0.25 0.219 0.52 0.409 0.805 0.569l-0.179 0.79c-0.064 0.283 0.113 0.566 0.397 0.631l1.656 0.376c0.284 0.065 0.566-0.113 0.63-0.397l0.179-0.79c0.326-0.021 0.652-0.077 0.972-0.166l0.432 0.685c0.155 0.246 0.48 0.32 0.727 0.165l1.436-0.905c0.246-0.155 0.32-0.481 0.165-0.727l-0.432-0.685c0.219-0.25 0.41-0.52 0.57-0.805l0.79 0.179c0.284 0.064 0.566-0.113 0.63-0.397l0.376-1.656c0.065-0.284-0.113-0.566-0.397-0.63zM12.667 13.033c-0.939 0-1.7-0.761-1.7-1.7s0.761-1.7 1.7-1.7c0.939 0 1.7 0.761 1.7 1.7s-0.761 1.7-1.7 1.7z"></path>
        </symbol>	 
 </svg>
