<svg xmlns="http://www.w3.org/2000/svg" width="188" height="91.246" viewBox="0 0 188 91.246">
  <g id="Group_899" data-name="Group 899" transform="translate(733 300)">
    <g id="Group_898" data-name="Group 898" transform="translate(-733 -300)">
      <path id="Path_345" data-name="Path 345" d="M1164.3,417.07c0-.223.594-.817.742-.817.075,0,.669.594.669.817a3.169,3.169,0,0,1-.669.742c-.149,0-.742-.668-.742-.742Zm11.508,0c0-.223.594-.817.742-.817.074,0,.668.594.668.817a3.187,3.187,0,0,1-.668.742c-.148,0-.742-.668-.742-.742Zm-5.791,0c0-.223.594-.817.742-.817.074,0,.668.594.668.817a3.186,3.186,0,0,1-.668.742c-.148,0-.742-.668-.742-.742Zm-6.46,1.188h2.9a.351.351,0,0,0,.371-.371v-1.633a.351.351,0,0,0-.371-.371c-.594,0-2,.074-2.9.148a.272.272,0,0,0-.3.3v1.633a.272.272,0,0,0,.3.3Zm-1.931-1.039c0-.148.445-.594.52-.594s.521.445.521.594a.525.525,0,1,1-1.04,0Zm5.716-.148c0-.148.447-.594.521-.594s.519.445.519.594a.525.525,0,1,1-1.04,0Zm4.826,1.262a.351.351,0,0,0,.372-.371v-1.782a.351.351,0,0,0-.372-.371h-2.821a.351.351,0,0,0-.371.371v1.782a.351.351,0,0,0,.371.371Zm5.792-.074a.272.272,0,0,0,.3-.3v-1.633a.272.272,0,0,0-.3-.3c-.891-.074-2.3-.148-2.9-.148a.351.351,0,0,0-.372.371v1.633a.351.351,0,0,0,.372.371Zm1.931-1.039a.525.525,0,1,1-1.04,0c0-.148.445-.594.52-.594s.521.445.521.594Zm-5.718-.148a.524.524,0,1,1-1.039,0c0-.148.445-.594.519-.594s.52.445.52.594Zm-7.573-34.449h.074c.371,1.411,2,1.559,2.376,3.192l-.074.074c-.816-1.188-1.931-1.336-2.376-1.93-.223-.3-.223-.668,0-1.336Zm2.747,19.006c0,2.3-1.93,3.341-3.934,3.341,2.6-2.821.594-6.9,3.118-9.577-.223,2.376.816,4.6.816,6.237Zm12.324,6.311c2.747,0,4.158-1.411,4.158-3.564a3.5,3.5,0,0,0-.223-1.262,3.569,3.569,0,0,1-2.153.742,2.439,2.439,0,0,1-2.6-2.45c0-2.3,2.45-3.489,2.45-6.088a1.5,1.5,0,0,0-.3-1.039,6.724,6.724,0,0,0,1.484-4.009,5.708,5.708,0,0,0-1.113-3.415l1.188.594a9.4,9.4,0,0,0-1.633-3.341s.594.3.891.149c-.594-.3-1.484-1.411-1.484-3.415s-.446-3.118-4.306-3.786a6.309,6.309,0,0,0-2-2.153,22.194,22.194,0,0,0-2.672,1.336s-1.114.074-1.559.074a13.19,13.19,0,0,1-1.484-.223,2.047,2.047,0,0,0-1.485.891,24.881,24.881,0,0,0-3.415.371c-.743.149-1.188.742-1.708,2l-3.638,2c-.668.371-1.113.594-1.113,1.188a3.335,3.335,0,0,0,.668,1.485c.371,2.227.743,2.6,1.263,2.6a2.623,2.623,0,0,0,.445-.074,4.22,4.22,0,0,1,.594.965c-.594.3-1.336-.371-2.228-.371a1.238,1.238,0,0,0-1.336,1.188c0,.3.149.371.3.371.223,0,.445-.074.965-.074.669,0,1.188.594,2.227.594.371,0,.594-.074.742,0-.519.371-.816.594-.668,1.114.223.965,1.114,2.079,1.559,2.079a4.536,4.536,0,0,0,1.039-.223l-.445.371c-2.969,2.524-2.3,5.346-2.3,8.167,0,2.153-.594,3.489-2.3,3.489a5.318,5.318,0,0,1-3.86-2.153,5.959,5.959,0,0,0-.222,1.708,4.553,4.553,0,0,0,4.751,4.306,7.5,7.5,0,0,0,5.049-1.782c4.231-.074,5.568-2.9,5.568-2.9,2,2.9,5.717,2.673,6.31,2.673a6.568,6.568,0,0,0,4.6,1.856Zm.3-15.74c0,3.118-4.008,3.489-4.008,6.534,0,1.188.371,2,.148,2.747a3.814,3.814,0,0,0,.891-1.559c0,2.3,1.189,4.974,4.232,4.974a3.258,3.258,0,0,0,1.708-.445,2.4,2.4,0,0,1-2.6,2.153c-3.119,0-5.94-2.6-5.94-7.424a4.784,4.784,0,0,1,.668-2.673s-1.484.817-1.633,3.415a4.006,4.006,0,0,1-.595-2c0-3.712,4.529-2.376,7.127-5.717Zm-3.489-14.032c2.747.594,2.376,2.376,2.9,3.638a12.217,12.217,0,0,0-2.747-2.45,1.8,1.8,0,0,0-.148-1.188Zm-16.631,7.424a3.765,3.765,0,0,1,.668-.148,2.315,2.315,0,0,1,.074,1.262.817.817,0,0,1-.742-1.114Zm1.56,2.227c-.3.445-.52,1.039-1.411,1.039s-1.633-.668-2.227-.668c-.3,0-.445.074-.594.074s-.223-.074-.223-.148c0-.223.3-.445.742-.445a8.542,8.542,0,0,1,1.485.371c.965.3,1.56-.52,1.931-.817a1.706,1.706,0,0,1,1.188-.445,2.358,2.358,0,0,1,1.263.371,4.794,4.794,0,0,0-1.782.742c-.223-.074-.3-.149-.371-.074Zm.816.965a.959.959,0,0,1-.742.3,1.642,1.642,0,0,1,0-.891c.3,0,.742.223.742.594Zm-4.752,16.334c3.49,0,3.416-4.009,3.416-5.346,0-6.014,1.781-7.5,5.939-9.429,3.118-1.485,5.939-2.079,5.939-5.049,0-1.039-.3-2.153-1.484-2.153a1.779,1.779,0,0,1,.445,1.188,2.565,2.565,0,0,1-.223.965,1.635,1.635,0,0,0-.3-.965c-.371.594-.3,1.485-.519,1.856,0,0-.149.371-1.189.891,0,0-.148.148.371.148,0,0,1.263,0,1.708-.52-.371,1.039-.816,1.411-1.485,1.411-.371,0-.965-.074-1.484-.074-.892,0-2.97.445-3.787,1.856a4.947,4.947,0,0,1-2.9,1.856c-.519,0-1.261-1.188-1.261-1.708,0-.594,1.039-.223,1.855-1.039,1.337-1.336,1.856-1.633,3.268-1.633,0,0,.816,0,.074-.742l-2.3-2.153a1.143,1.143,0,0,0-.817-.445c-.149,0-.445.074-1.113.668a5.107,5.107,0,0,0-2.227.594c-.223.148-.371.3-.52.3-.223,0-.519-1.188-.519-1.411,0-.594.668-.965.668-1.336a.331.331,0,0,0-.223-.3l-.966.446s-.52-.594.074-.891c0,0,1.485-.817,4.306-2.153.149.817.371.965,1.04.891l-.3.074-.148.223a2.178,2.178,0,0,0,1.114-.148c.371-.149.816-.149.891-.223s.3-.3.3-.371a5.485,5.485,0,0,0-.891.148q.668-.445.668-.668a.259.259,0,0,0-.074-.148c-.223,0-.371.148-.594.074a.5.5,0,0,1-.3-.445c0-.148.149-.3.668-.3h.371c0-.3-.742-.445-1.039-.445a3.317,3.317,0,0,0-1.337.371,1.223,1.223,0,0,1,.743-.891,19.366,19.366,0,0,1,4.157-.371c2.673,0,4.677,2.3,5.049,2.3.148,0,.3-.149.074-.3-.965-.668-1.558-1.188-1.558-1.856,0-.223,0-1.633,3.044-2.153,1.337,1.114,1.782,1.93,1.782,2.673,0,1.262-1.411,1.411-1.559,1.93,3.489.223,6.089,4.826,6.089,7.127,0,4.158-3.935,5.865-6.386,6.385,3.563-2.673,4.9-5.346,4.9-7.2,0-3.044-2.747-4.826-3.415-5.2a7.01,7.01,0,0,1,1.929,4.826,5,5,0,0,1-1.633,3.861,3.381,3.381,0,0,0,.371-1.559,3.064,3.064,0,0,0-.074-.668c-1.411,3.341-4.677,5.643-4.9,8.464a6.119,6.119,0,0,1-.3-1.93,5.827,5.827,0,0,1,1.484-3.861c-2.9,2-3.563,4.306-3.563,6.088a7.044,7.044,0,0,0,.742,3.118,8.225,8.225,0,0,1,.074-2.673,9.941,9.941,0,0,0,5.049,7.647c-6.088,0-8.612-7.276-6.088-11.879-4.232,1.114-4.752,5.494-4.826,8.018a14.458,14.458,0,0,1-.371-3.193c0-4.529,3.786-5.717,6.607-6.979,4.158-1.856,5.866-3.341,5.866-6.014,0-2.821-3.342-4.6-5.792-4.083l.892.891a2.9,2.9,0,0,0,.371.3c2.6,1.336,2.969,2.821,2.969,3.712,0,2.376-2.673,3.638-4.6,4.455-6.236,2.673-7.35,3.861-7.35,7.721,0,2.821.817,7.276-2.153,7.647.223.371,1.263.52,1.263.52a4.341,4.341,0,0,1-2.97.965,3.548,3.548,0,0,1-3.713-2.524,4.744,4.744,0,0,0,2.673.817Zm16.26-25.614.223.148s1.336-.594,1.336-1.559a1.306,1.306,0,0,0-.3-.817c-.149,0-.149.3-.149.445a.529.529,0,0,1-.594.52.872.872,0,0,1-.816-.817,2.873,2.873,0,0,1,.223-.891.073.073,0,0,0-.074-.074c-1.188.445-1.263.965-1.263,1.336,0,.52.223,1.039,1.411,1.708Zm-14.329,3.044a.61.61,0,0,0,.445.3,1.672,1.672,0,0,0,.594-1.039c-.371.074-1.039.223-1.039.742Zm24.129,24.723-.223-.074a3.65,3.65,0,0,1-2.9,1.411l-.074.149c.668.668.52,2.153-.3,2.153-.519,0-.742-.445-.816-.817l-.148-.074a10.9,10.9,0,0,0-.965.742,8.236,8.236,0,0,0,.148,1.411h.148a.668.668,0,0,1,1.262.371,1.407,1.407,0,0,1-1.558,1.411c-1.114,0-2.079-.52-2.079-1.708a1.763,1.763,0,0,1,1.113-1.633v-.148a4.464,4.464,0,0,1-1.262-1.559h-.148a3.52,3.52,0,0,1-1.634,1.114v.148a2.107,2.107,0,0,1,.668,1.559c0,.965-.816,1.559-2.524,1.559-1.262,0-2.524-.371-2.524-1.633a.957.957,0,0,1,.966-1.039,1.312,1.312,0,0,1,1.113.594h.149a5.894,5.894,0,0,1,.965-1.039v-.148a5.34,5.34,0,0,1-.965-1.114h-.149a1.55,1.55,0,0,1-1.336.668.675.675,0,0,1-.743-.668c0-.668.817-.965,1.485-1.188v-.148a4.6,4.6,0,0,1-2.376-2.376h-.149a4.6,4.6,0,0,1-2.376,2.376v.148c.668.223,1.484.52,1.484,1.188a.675.675,0,0,1-.742.668,1.55,1.55,0,0,1-1.336-.668h-.149a5.374,5.374,0,0,1-.966,1.114v.148a5.953,5.953,0,0,1,.966,1.039h.149a1.312,1.312,0,0,1,1.113-.594.956.956,0,0,1,.965,1.039c0,1.262-1.262,1.633-2.524,1.633-1.707,0-2.524-.594-2.524-1.559a2.105,2.105,0,0,1,.669-1.559v-.148a3.514,3.514,0,0,1-1.634-1.114h-.148a4.457,4.457,0,0,1-1.263,1.559v.148a1.763,1.763,0,0,1,1.114,1.633c0,1.188-.966,1.708-2.079,1.708a1.408,1.408,0,0,1-1.559-1.411.668.668,0,0,1,1.263-.371h.148a8.224,8.224,0,0,0,.148-1.411,10.9,10.9,0,0,0-.965-.742l-.148.074c-.074.371-.3.817-.818.817-.816,0-.965-1.485-.3-2.153l-.074-.149a3.648,3.648,0,0,1-2.9-1.411l-.223.074,3.118,7.127s-.668.3-.52.817c.3,1.039,1.187,2.376,1.187,4.009,0,.668-.074.742-.074,1.039s.223.445.521.445H1181.3c.3,0,.52-.148.52-.445s-.074-.371-.074-1.039c0-1.633.891-2.97,1.189-4.009.148-.52-.52-.817-.52-.817l3.118-7.127ZM1170.757,419c-5.792,0-9.652-.074-9.652-.074l-.816-3.118a74.162,74.162,0,0,1,20.936,0l-.816,3.118s-3.861.074-9.652.074Z" transform="translate(-1076.609 -374.9)" fill="#fff"/>
      <path id="Path_346" data-name="Path 346" d="M487.818,1141.881v-10.846h1.558v9.485h5.245v1.361Z" transform="translate(-479.811 -1050.872)" fill="#fff"/>
      <path id="Path_347" data-name="Path 347" d="M575.795,1141.881v-10.846h7.533v1.36h-5.975v3.254h5.876v1.36h-5.876v3.51h5.975v1.361Z" transform="translate(-558.461 -1050.872)" fill="#fff"/>
      <path id="Path_348" data-name="Path 348" d="M671.686,1131.035l4.575,10.846h-1.716l-1.006-2.366H668l-1.006,2.366h-1.735l4.595-10.846Zm-.907,1.617-2.307,5.5h4.595Z" transform="translate(-638.44 -1050.872)" fill="#fff"/>
      <path id="Path_349" data-name="Path 349" d="M788.017,1141.881v-10.846h3.944c3.549,0,5.778,2.366,5.778,5.443s-2.228,5.4-5.778,5.4Zm8.125-5.4a3.875,3.875,0,0,0-4.18-4.082h-2.386v8.125h2.386A3.886,3.886,0,0,0,796.141,1136.478Z" transform="translate(-748.184 -1050.872)" fill="#fff"/>
      <path id="Path_350" data-name="Path 350" d="M897.755,1141.881v-10.846h7.533v1.36h-5.975v3.254h5.876v1.36h-5.876v3.51h5.975v1.361Z" transform="translate(-846.288 -1050.872)" fill="#fff"/>
      <path id="Path_351" data-name="Path 351" d="M1000.854,1141.881l-2.84-4.22h-2.169v4.22h-1.558v-10.846h4.654a3.268,3.268,0,0,1,3.589,3.313,3.02,3.02,0,0,1-2.938,3.194l3.076,4.339Zm.079-7.533a1.9,1.9,0,0,0-2.13-1.952h-2.958v3.924H998.8A1.89,1.89,0,0,0,1000.932,1134.348Z" transform="translate(-932.586 -1050.872)" fill="#fff"/>
      <path id="Path_352" data-name="Path 352" d="M1090.448,1138.426l.828-1.163a4.928,4.928,0,0,0,3.55,1.518c1.893,0,2.642-.887,2.642-1.854,0-2.761-6.665-1.124-6.665-5.048,0-1.794,1.7-3.076,3.924-3.076a5.462,5.462,0,0,1,4.062,1.558l-.808,1.085a4.463,4.463,0,0,0-3.254-1.3c-1.361,0-2.327.71-2.327,1.716,0,2.346,6.646.907,6.646,5.009,0,1.834-1.361,3.254-4.26,3.254A5.868,5.868,0,0,1,1090.448,1138.426Z" transform="translate(-1018.553 -1048.877)" fill="#fff"/>
      <path id="Path_353" data-name="Path 353" d="M1201.166,1141.881v-4.891h-6.488v4.891h-1.558v-10.846h1.558v4.594h6.488v-4.594h1.518v10.846Z" transform="translate(-1110.34 -1050.872)" fill="#fff"/>
      <path id="Path_354" data-name="Path 354" d="M1314.949,1141.881v-10.846h1.558v10.846Z" transform="translate(-1219.253 -1050.872)" fill="#fff"/>
      <path id="Path_355" data-name="Path 355" d="M1362.191,1141.881v-10.846h4.654a3.322,3.322,0,1,1,0,6.626h-3.1v4.22Zm6.646-7.533a1.9,1.9,0,0,0-2.13-1.952h-2.958v3.924h2.958A1.9,1.9,0,0,0,1368.837,1134.348Z" transform="translate(-1261.486 -1050.872)" fill="#fff"/>
      <path id="Path_356" data-name="Path 356" d="M1511.731,1134.443a5.533,5.533,0,0,1,5.8-5.64,5.077,5.077,0,0,1,4.3,2.228l-1.242.69a3.709,3.709,0,0,0-3.057-1.558,4.3,4.3,0,0,0,0,8.6,3.705,3.705,0,0,0,3.057-1.558l1.262.69a5.164,5.164,0,0,1-4.318,2.228A5.553,5.553,0,0,1,1511.731,1134.443Z" transform="translate(-1395.172 -1048.877)" fill="#fff"/>
      <path id="Path_357" data-name="Path 357" d="M1629.839,1141.881v-10.846h7.533v1.36H1631.4v3.254h5.876v1.36H1631.4v3.51h5.975v1.361Z" transform="translate(-1500.759 -1050.872)" fill="#fff"/>
      <path id="Path_358" data-name="Path 358" d="M1735.248,1141.881l-6.408-8.44v8.44H1727.3v-10.846h1.617l6.35,8.282v-8.282h1.538v10.846Z" transform="translate(-1587.889 -1050.872)" fill="#fff"/>
      <path id="Path_359" data-name="Path 359" d="M1840.038,1141.881V1132.4h-3.372v-1.36h8.263v1.36h-3.353v9.485Z" transform="translate(-1685.659 -1050.872)" fill="#fff"/>
      <path id="Path_360" data-name="Path 360" d="M1935.43,1141.881v-10.846h7.533v1.36h-5.975v3.254h5.876v1.36h-5.876v3.51h5.975v1.361Z" transform="translate(-1773.952 -1050.872)" fill="#fff"/>
      <path id="Path_361" data-name="Path 361" d="M2038.527,1141.881l-2.84-4.22h-2.169v4.22h-1.558v-10.846h4.654a3.268,3.268,0,0,1,3.589,3.313,3.021,3.021,0,0,1-2.938,3.194l3.076,4.339Zm.079-7.533a1.9,1.9,0,0,0-2.13-1.952h-2.958v3.924h2.958A1.89,1.89,0,0,0,2038.607,1134.348Z" transform="translate(-1860.249 -1050.872)" fill="#fff"/>
      <g id="Group_897" data-name="Group 897" transform="translate(0 62.166)">
        <g id="Group_896" data-name="Group 896">
          <path id="Path_362" data-name="Path 362" d="M2077.364,971.144l-6.218-7.129h-4.166v.56c1.264,0,1.451.166,1.451,1.244v5.948c0,2.135-.436,2.342-1.492,2.342v.56h3.855v-.56c-1.223,0-1.617-.269-1.617-1.534v-7.026l8.311,9.41h.622v-8.912c0-1.326.705-1.471,1.41-1.471v-.56h-3.855v.56c.974,0,1.7.187,1.7,1.451v5.119Z" transform="translate(-1891.519 -963.725)" fill="#fff"/>
          <path id="Path_363" data-name="Path 363" d="M1953.558,961.283a5.619,5.619,0,1,0,5.8,5.616,5.511,5.511,0,0,0-5.8-5.616Zm0,10.735c-1.989,0-2.9-1.783-2.9-5.119s.912-5.119,2.9-5.119,2.9,1.782,2.9,5.119-.912,5.119-2.9,5.119Z" transform="translate(-1784.971 -961.283)" fill="#fff"/>
          <path id="Path_364" data-name="Path 364" d="M1835.589,970.816c0,.767-.249.85-1.347.85v.56h5.347v-.56c-1.1,0-1.347-.083-1.347-.85V962.63a.487.487,0,0,1,.56-.56,4.465,4.465,0,0,1,3.357,2.487l.414-.145-.642-3.129h-.435a2.236,2.236,0,0,1-1.057.29h-7.046a1.756,1.756,0,0,1-.56-.083,2.749,2.749,0,0,1-.5-.207h-.435l-.643,3.129.415.145a4.463,4.463,0,0,1,3.358-2.487.486.486,0,0,1,.559.56v8.186Z" transform="translate(-1680.824 -961.283)" fill="#fff"/>
          <path id="Path_365" data-name="Path 365" d="M1739.653,973.258c0,.767-.249.85-1.347.85v.56h10.072l.809-3.109h-.5c-1.471,2.156-2.425,2.549-4.974,2.549-1.181,0-1.409-.207-1.409-.746v-7.938c0-.767.249-.85,1.347-.85v-.56h-5.347v.56c1.1,0,1.347.083,1.347.85v7.834Z" transform="translate(-1597.727 -963.725)" fill="#fff"/>
          <path id="Path_366" data-name="Path 366" d="M1624.991,973.03l-1.761-2.735a1.63,1.63,0,0,0-1.388-.953V969.3c1.72-.1,2.756-.995,2.756-2.321,0-1.347-1.2-2.964-4.643-2.964h-5.347v.56c1.1,0,1.347.083,1.347.85v7.834c0,.767-.249.85-1.347.85v.56h5.347v-.56c-1.1,0-1.347-.083-1.347-.85v-3.73c1.119,0,1.513.145,1.8.684l2.487,4.456h3.668v-.56c-.621,0-.932-.062-1.575-1.078Zm-5.45-4h-.933v-4.456h.6c2.2,0,2.736,1.285,2.736,2.239a2.115,2.115,0,0,1-2.4,2.217Z" transform="translate(-1487.143 -963.725)" fill="#fff"/>
          <path id="Path_367" data-name="Path 367" d="M1491.486,971.554l-4.5-8.663c-.187-.332-.27-.435-.353-.435a9.82,9.82,0,0,1-1.8,1.72.569.569,0,0,1,.332.477,1.056,1.056,0,0,1-.166.518l-2.694,5.617c-.684,1.451-1.1,1.927-2.114,1.927v.56h3.854v-.56c-1.036,0-1.451-.29-1.451-.7a3.2,3.2,0,0,1,.622-1.471h4.849a4.024,4.024,0,0,1,.788,1.72c0,.352-.332.455-1.451.455v.56h5.782v-.56c-.932,0-1.2-.207-1.7-1.16Zm-8.021-1.637,2.114-4.477,2.2,4.477Z" transform="translate(-1366.976 -962.332)" fill="#fff"/>
          <path id="Path_368" data-name="Path 368" d="M1373.924,968.557c-.932,1.927-2.342,3.4-4.1,3.4-1.617,0-3.42-1.243-3.42-5.057,0-3.5,1.451-5.057,3.524-5.057,1.948,0,3.15,1.306,4,2.9h.435v-3.336h-.373a1,1,0,0,1-.809.435,27.28,27.28,0,0,0-3.523-.559c-3.792,0-6.156,2.507-6.156,5.8a5.558,5.558,0,0,0,5.865,5.43,16.885,16.885,0,0,0,3.813-.726c.373,0,.622.249.809.726h.373v-3.958Z" transform="translate(-1262.656 -961.283)" fill="#fff"/>
          <path id="Path_369" data-name="Path 369" d="M1151.211,974.668h9.285l1.119-3.213h-.435c-1.554,2.073-2.508,2.715-4.041,2.715h-2.611l6.735-9.865v-.29h-9.139l-1,2.984h.373c1.223-1.616,2.508-2.425,3.938-2.425h2.446l-6.674,9.72v.373Z" transform="translate(-1072.799 -963.725)" fill="#fff"/>
          <path id="Path_370" data-name="Path 370" d="M1037.526,970.816c0,.767-.249.85-1.347.85v.56h5.347v-.56c-1.1,0-1.347-.083-1.347-.85V962.63a.487.487,0,0,1,.56-.56,4.463,4.463,0,0,1,3.357,2.487l.415-.145-.642-3.129h-.436a2.236,2.236,0,0,1-1.057.29h-7.047a1.753,1.753,0,0,1-.559-.083,2.767,2.767,0,0,1-.5-.207h-.435l-.642,3.129.415.145a4.463,4.463,0,0,1,3.357-2.487.487.487,0,0,1,.56.56v8.186Z" transform="translate(-967.369 -961.283)" fill="#fff"/>
          <path id="Path_371" data-name="Path 371" d="M971.544,973.258c0,.767-.248.85-1.347.85v.56h5.348v-.56c-1.1,0-1.347-.083-1.347-.85v-7.834c0-.767.248-.85,1.347-.85v-.56H970.2v.56c1.1,0,1.347.083,1.347.85v7.834Z" transform="translate(-911.05 -963.725)" fill="#fff"/>
          <path id="Path_372" data-name="Path 372" d="M854.564,973.03l-1.761-2.735a1.63,1.63,0,0,0-1.389-.953V969.3c1.721-.1,2.757-.995,2.757-2.321,0-1.347-1.2-2.964-4.643-2.964h-5.347v.56c1.1,0,1.347.083,1.347.85v7.834c0,.767-.249.85-1.347.85v.56h5.347v-.56c-1.1,0-1.347-.083-1.347-.85v-3.73c1.119,0,1.513.145,1.8.684l2.487,4.456h3.668v-.56c-.622,0-.933-.062-1.575-1.078Zm-5.45-4h-.933v-4.456h.6c2.2,0,2.736,1.285,2.736,2.239a2.115,2.115,0,0,1-2.4,2.217Z" transform="translate(-798.394 -963.725)" fill="#fff"/>
          <path id="Path_373" data-name="Path 373" d="M672.981,973.258c0,.767-.249.85-1.347.85v.56h9.844l.829-3.109h-.5a4.542,4.542,0,0,1-4.56,2.549c-1.43,0-1.617-.207-1.617-.642v-4.041h.7c1.927,0,2.8.518,3.109,2.031h.435v-4.746h-.435c-.435,1.575-1.14,2.155-3.109,2.155h-.7v-3.606c0-.6.187-.684.974-.684a5.777,5.777,0,0,1,5.057,2.363h.436l-1.057-2.922h-9.409v.56c1.1,0,1.347.083,1.347.85v7.834Z" transform="translate(-644.14 -963.725)" fill="#fff"/>
          <path id="Path_374" data-name="Path 374" d="M538.4,973.258c0,.767-.249.85-1.347.85v.56H542.4v-.56c-1.1,0-1.347-.083-1.347-.85v-7.834c0-.767.248-.85,1.347-.85v-.56h-5.347v.56c1.1,0,1.347.083,1.347.85v3.254h-5.43v-3.254c0-.767.249-.85,1.347-.85v-.56h-5.347v.56c1.1,0,1.347.083,1.347.85v7.834c0,.767-.249.85-1.347.85v.56h5.347v-.56c-1.1,0-1.347-.083-1.347-.85v-3.834h5.43v3.834Z" transform="translate(-516.603 -963.725)" fill="#fff"/>
          <path id="Path_375" data-name="Path 375" d="M416.628,970.816c0,.767-.249.85-1.347.85v.56h5.347v-.56c-1.1,0-1.347-.083-1.347-.85V962.63a.487.487,0,0,1,.56-.56,4.463,4.463,0,0,1,3.357,2.487l.414-.145-.642-3.129h-.435a2.237,2.237,0,0,1-1.057.29h-7.047a1.754,1.754,0,0,1-.56-.083,2.759,2.759,0,0,1-.5-.207h-.435l-.643,3.129.415.145a4.463,4.463,0,0,1,3.357-2.487.487.487,0,0,1,.56.56v8.186Z" transform="translate(-412.297 -961.283)" fill="#fff"/>
          <path id="Path_376" data-name="Path 376" d="M1282.3,1003.3h3.561l1.5-2.156H1283.8l-1.5,2.156Z" transform="translate(-1190.065 -996.921)" fill="#fff"/>
        </g>
      </g>
      <path id="Path_377" data-name="Path 377" d="M2077.267,971.148l-6.217-7.128h-4.166v.559c1.264,0,1.451.166,1.451,1.243v5.948c0,2.135-.435,2.341-1.492,2.341v.56h3.854v-.56c-1.223,0-1.616-.269-1.616-1.533v-7.025l8.309,9.409h.622v-8.911c0-1.326.7-1.471,1.409-1.471v-.559h-3.854v.559c.974,0,1.7.187,1.7,1.451v5.118Z" transform="translate(-1891.434 -901.563)" fill="#fff"/>
      <path id="Path_378" data-name="Path 378" d="M1953.476,961.288a5.619,5.619,0,1,0,5.8,5.616,5.51,5.51,0,0,0-5.8-5.616Zm0,10.734c-1.989,0-2.9-1.782-2.9-5.118s.912-5.119,2.9-5.119,2.9,1.782,2.9,5.119-.912,5.118-2.9,5.118Z" transform="translate(-1784.898 -899.121)" fill="#fff"/>
      <path id="Path_379" data-name="Path 379" d="M1835.523,970.82c0,.766-.248.849-1.346.849v.56h5.346v-.56c-1.1,0-1.347-.083-1.347-.849v-8.185a.487.487,0,0,1,.56-.559,4.465,4.465,0,0,1,3.357,2.486l.414-.145-.642-3.129h-.435a2.239,2.239,0,0,1-1.057.29h-7.045a1.754,1.754,0,0,1-.56-.082,2.768,2.768,0,0,1-.5-.207h-.435l-.643,3.129.415.145a4.463,4.463,0,0,1,3.357-2.486.486.486,0,0,1,.559.559v8.185Z" transform="translate(-1680.765 -899.121)" fill="#fff"/>
      <path id="Path_380" data-name="Path 380" d="M1739.6,973.262c0,.766-.249.849-1.347.849v.56h10.071l.809-3.109h-.5c-1.471,2.156-2.425,2.549-4.973,2.549-1.181,0-1.409-.207-1.409-.746v-7.937c0-.767.249-.85,1.347-.85v-.559h-5.346v.559c1.1,0,1.347.083,1.347.85v7.833Z" transform="translate(-1597.677 -901.563)" fill="#fff"/>
      <path id="Path_381" data-name="Path 381" d="M1624.95,973.034l-1.761-2.735a1.629,1.629,0,0,0-1.388-.953V969.3c1.719-.1,2.756-.995,2.756-2.321,0-1.347-1.2-2.963-4.642-2.963h-5.346v.559c1.1,0,1.347.083,1.347.85v7.833c0,.766-.249.849-1.347.849v.56h5.346v-.56c-1.1,0-1.347-.083-1.347-.849v-3.73c1.119,0,1.513.145,1.8.683l2.487,4.455h3.667v-.56c-.621,0-.932-.062-1.574-1.078Zm-5.45-4h-.932v-4.456h.6c2.2,0,2.736,1.285,2.736,2.238a2.115,2.115,0,0,1-2.4,2.217Z" transform="translate(-1487.107 -901.563)" fill="#fff"/>
      <path id="Path_382" data-name="Path 382" d="M1491.461,971.558l-4.5-8.662c-.186-.331-.269-.435-.352-.435a9.831,9.831,0,0,1-1.8,1.719.569.569,0,0,1,.332.477,1.056,1.056,0,0,1-.166.518l-2.694,5.616c-.684,1.45-1.1,1.927-2.114,1.927v.56h3.854v-.56c-1.036,0-1.45-.29-1.45-.7a3.2,3.2,0,0,1,.622-1.471h4.849a4.023,4.023,0,0,1,.788,1.72c0,.352-.332.455-1.45.455v.56h5.781v-.56c-.932,0-1.2-.207-1.7-1.16Zm-8.019-1.637,2.113-4.476,2.2,4.476Z" transform="translate(-1366.956 -900.17)" fill="#fff"/>
      <path id="Path_383" data-name="Path 383" d="M1373.915,968.562c-.933,1.927-2.342,3.4-4.1,3.4-1.617,0-3.42-1.243-3.42-5.056,0-3.5,1.451-5.057,3.523-5.057,1.947,0,3.15,1.306,4,2.9h.435v-3.336h-.373a1,1,0,0,1-.809.435,27.277,27.277,0,0,0-3.522-.559c-3.792,0-6.155,2.507-6.155,5.8a5.558,5.558,0,0,0,5.865,5.429,16.883,16.883,0,0,0,3.813-.726c.373,0,.622.249.809.726h.373v-3.958Z" transform="translate(-1262.648 -899.121)" fill="#fff"/>
      <path id="Path_384" data-name="Path 384" d="M1151.23,974.672h9.284l1.119-3.212h-.435c-1.554,2.072-2.507,2.714-4.041,2.714h-2.611l6.735-9.864v-.29h-9.138l-.995,2.984h.373c1.223-1.616,2.507-2.424,3.937-2.424h2.446l-6.673,9.719v.373Z" transform="translate(-1072.817 -901.563)" fill="#fff"/>
      <path id="Path_385" data-name="Path 385" d="M1037.559,970.82c0,.766-.249.849-1.347.849v.56h5.346v-.56c-1.1,0-1.347-.083-1.347-.849v-8.185a.487.487,0,0,1,.559-.559,4.462,4.462,0,0,1,3.357,2.486l.415-.145-.642-3.129h-.435a2.24,2.24,0,0,1-1.057.29h-7.046a1.752,1.752,0,0,1-.559-.082,2.8,2.8,0,0,1-.5-.207h-.435l-.643,3.129.414.145a4.463,4.463,0,0,1,3.357-2.486.487.487,0,0,1,.56.559v8.185Z" transform="translate(-967.399 -899.121)" fill="#fff"/>
      <path id="Path_386" data-name="Path 386" d="M971.585,973.262c0,.766-.248.849-1.347.849v.56h5.347v-.56c-1.1,0-1.347-.083-1.347-.849v-7.833c0-.767.248-.85,1.347-.85v-.559h-5.347v.559c1.1,0,1.347.083,1.347.85v7.833Z" transform="translate(-911.087 -901.563)" fill="#fff"/>
      <path id="Path_387" data-name="Path 387" d="M854.62,973.034l-1.761-2.735a1.629,1.629,0,0,0-1.389-.953V969.3c1.72-.1,2.756-.995,2.756-2.321,0-1.347-1.2-2.963-4.642-2.963h-5.346v.559c1.1,0,1.347.083,1.347.85v7.833c0,.766-.249.849-1.347.849v.56h5.346v-.56c-1.1,0-1.347-.083-1.347-.849v-3.73c1.119,0,1.513.145,1.8.683l2.486,4.455h3.668v-.56c-.622,0-.933-.062-1.575-1.078Zm-5.45-4h-.933v-4.456h.6c2.2,0,2.735,1.285,2.735,2.238a2.115,2.115,0,0,1-2.4,2.217Z" transform="translate(-798.445 -901.563)" fill="#fff"/>
      <path id="Path_388" data-name="Path 388" d="M538.5,973.262c0,.766-.248.849-1.347.849v.56H542.5v-.56c-1.1,0-1.347-.083-1.347-.849v-7.833c0-.767.248-.85,1.347-.85v-.559H537.15v.559c1.1,0,1.347.083,1.347.85v3.253h-5.429v-3.253c0-.767.249-.85,1.347-.85v-.559h-5.346v.559c1.1,0,1.347.083,1.347.85v7.833c0,.766-.249.849-1.347.849v.56h5.346v-.56c-1.1,0-1.347-.083-1.347-.849v-3.833H538.5v3.833Z" transform="translate(-516.689 -901.563)" fill="#fff"/>
      <path id="Path_389" data-name="Path 389" d="M416.739,970.82c0,.766-.249.849-1.347.849v.56h5.346v-.56c-1.1,0-1.347-.083-1.347-.849v-8.185a.486.486,0,0,1,.56-.559,4.463,4.463,0,0,1,3.357,2.486l.414-.145-.642-3.129h-.435a2.239,2.239,0,0,1-1.057.29h-7.046a1.754,1.754,0,0,1-.56-.082,2.787,2.787,0,0,1-.5-.207h-.435l-.642,3.129.415.145a4.463,4.463,0,0,1,3.357-2.486.487.487,0,0,1,.56.559v8.185Z" transform="translate(-412.396 -899.121)" fill="#fff"/>
      <path id="Path_390" data-name="Path 390" d="M1282.3,1003.3h3.561l1.5-2.156H1283.8l-1.5,2.156Z" transform="translate(-1190.067 -934.755)" fill="#fff"/>
    </g>
  </g>
</svg>
